<svg width="225" height="64" viewBox="0 0 225 64" fill="none" xmlns="http://www.w3.org/2000/svg">
<path d="M12.8809 39.67C9.25927 39.67 5.63969 39.67 2.01808 39.67C1.92036 39.6476 1.71475 39.5862 1.52543 39.4083C1.29132 39.1896 1.2221 38.932 1.19971 38.8338C1.22821 37.967 1.28724 36.8711 1.40735 35.6096C1.47861 34.8511 1.5865 33.7532 1.81043 32.412C2.18501 30.1753 2.6797 28.5091 2.99321 27.4664C3.38814 26.1538 3.92966 24.5652 4.68289 22.7946C4.75821 22.6802 4.89257 22.5064 5.11243 22.3633C5.62137 22.032 6.16695 22.1425 6.28095 22.167C6.96497 22.3224 7.28458 22.8867 7.33344 22.9766C9.18191 28.5418 11.0324 34.1069 12.8809 39.67Z" fill="#0284EB"/>
<path d="M13.5832 39.6964C14.3629 39.6964 15.1426 39.6964 15.9243 39.6964C16.0383 39.6596 16.2399 39.5758 16.4048 39.3836C16.7793 38.9461 16.6165 38.3552 16.6002 38.3C15.6129 35.3027 14.6255 32.3055 13.6382 29.3082C13.5873 29.1856 13.3572 28.6663 12.7669 28.3943C12.6366 28.3351 12.0666 28.0897 11.4681 28.3412C10.8756 28.5906 10.4868 29.2244 10.4807 29.9461C11.5128 33.1969 12.547 36.4456 13.5832 39.6964Z" fill="#0284EB"/>
<path fill-rule="evenodd" clip-rule="evenodd" d="M52.0687 59.5594C49.8396 58.8751 48.0086 58.7569 46.6485 58.8042L46.648 58.8042C45.6228 58.8392 44.8227 58.9691 43.7108 59.1956C43.4292 59.2529 43.1269 59.3167 42.7965 59.3863C41.82 59.5921 40.5988 59.8495 38.9446 60.1464C38.3399 60.2549 37.7594 60.3541 37.2062 60.4446C40.227 61.1211 44.1176 61.4839 48.436 60.5922C49.7581 60.3195 50.9711 59.9603 52.0687 59.5594ZM46.5787 56.7608C48.656 56.6888 51.6126 56.9615 55.2372 58.5711C55.601 58.7326 55.8377 59.0922 55.8434 59.4916C55.849 59.891 55.6224 60.2571 55.2634 60.4289C53.5177 61.2641 51.3672 62.0748 48.8459 62.5948M46.5782 56.7609C45.3908 56.8015 44.4656 56.9557 43.3063 57.1918C43.0082 57.2525 42.6954 57.3185 42.3579 57.3896C41.3852 57.5946 40.2074 57.8428 38.5864 58.1337C35.9772 58.6019 33.8267 58.8936 32.4061 59.0656C31.9424 59.1218 31.5762 59.4877 31.518 59.9532C31.4598 60.4186 31.7245 60.8641 32.1601 61.0337C35.2726 62.2454 41.4657 64.1187 48.8459 62.5948" fill="#0284EB"/>
<path d="M43.23 0.166016C30.3799 0.166016 19.3412 7.93691 14.5286 19.046C14.3268 19.5119 14.5392 20.054 15.0032 20.2567C15.4671 20.4594 16.0068 20.246 16.2087 19.7801C20.7402 9.31957 31.1339 2.00607 43.23 2.00607C59.4919 2.00607 72.6731 15.2243 72.6731 31.5268C72.6731 34.8042 72.1401 37.9561 71.1576 40.9009H0.320312V42.5365H70.5575C70.4704 42.7538 70.3807 42.9698 70.2887 43.1845C70.0885 43.6512 70.303 44.1925 70.7676 44.3935C71.2323 44.5945 71.7713 44.3791 71.9714 43.9124C72.1658 43.4592 72.3498 43.0004 72.5233 42.5365H78.3203V40.9009H73.0836C74.0072 37.9398 74.5053 34.7907 74.5053 31.5268C74.5053 14.2052 60.501 0.166016 43.23 0.166016Z" fill="#0284EB"/>
<path d="M39.5841 36.967L32.3084 16.3993C31.9684 15.4363 30.9871 14.8311 29.9469 14.9988C29.1692 15.1235 28.5361 15.696 28.2653 16.4361L20.7514 36.9425C20.3381 38.067 20.9244 39.3162 22.0563 39.7128C23.1678 40.1013 24.3811 39.4695 24.7883 38.3594L25.4601 36.9548C25.8611 35.863 26.7365 35.1454 27.8948 35.1454H33.1512C33.9003 35.1454 34.5701 35.6197 34.8205 36.3292L35.5554 38.4043C35.8669 39.2835 36.6893 39.8334 37.5687 39.8334C37.8069 39.8334 38.0471 39.7926 38.2853 39.7087C39.3989 39.3121 39.9791 38.0833 39.5841 36.967ZM28.1452 29.1999L29.5825 25.2786C29.8105 24.653 30.694 24.6591 30.9159 25.2868L32.4 29.478C32.5058 29.7785 32.2839 30.0934 31.9663 30.0934H28.7682C28.3061 30.0934 27.9864 29.6334 28.1452 29.1999Z" fill="#0284EB"/>
<path d="M65.3648 36.967L58.089 16.3993C57.749 15.4363 56.7678 14.8311 55.7275 14.9988C54.9499 15.1235 54.3167 15.696 54.046 16.4361L46.532 36.9445C46.1187 38.069 46.705 39.3182 47.8369 39.7149C48.9484 40.1033 50.1618 39.4716 50.5689 38.3614L51.2407 36.9568C51.6417 35.865 52.5171 35.1474 53.6755 35.1474H58.9318C59.6809 35.1474 60.3507 35.6217 60.6011 36.3312L61.336 38.4064C61.6475 39.2855 62.4699 39.8355 63.3494 39.8355C63.5876 39.8355 63.8278 39.7946 64.066 39.7108C65.1795 39.3121 65.7597 38.0833 65.3648 36.967ZM53.9259 29.1999L55.3631 25.2786C55.5911 24.653 56.4746 24.6591 56.6965 25.2868L58.1806 29.478C58.2865 29.7785 58.0646 30.0934 57.747 30.0934H54.5488C54.0867 30.0934 53.7671 29.6334 53.9259 29.1999Z" fill="#0284EB"/>
<path d="M46.7234 19.2143C46.1147 18.8075 45.2943 18.9751 44.8892 19.5844L43.0651 22.3424L41.2777 19.5946C40.8787 18.9792 40.0583 18.8075 39.4455 19.2082C38.8328 19.6089 38.6618 20.4329 39.0608 21.0483L41.7297 25.1536V31.1359C41.7297 31.8699 42.3221 32.4648 43.0529 32.4648C43.7837 32.4648 44.3761 31.8699 44.3761 31.1359V25.1598L47.0918 21.0564C47.497 20.4451 47.3321 19.6191 46.7234 19.2143Z" fill="#0284EB"/>
<path d="M69.0276 48.849C68.853 48.849 68.6756 48.8083 68.5093 48.7199C65.4906 47.1318 62.3475 46.161 59.1653 45.8327C55.6324 45.4693 53.6013 46.0431 51.2489 46.7067C49.1381 47.303 46.7452 47.9778 43.0182 47.9876C42.9916 47.9876 42.9637 47.9876 42.9371 47.9876C39.3359 47.9876 37.0225 47.3492 34.9802 46.7853C32.6725 46.1483 30.6791 45.5984 27.1407 45.9281C23.911 46.2297 20.7148 47.1556 17.6416 48.682C17.0884 48.957 16.4179 48.7283 16.1441 48.1728C15.8703 47.6172 16.098 46.9438 16.6511 46.6688C19.9716 45.0246 23.4304 44.0229 26.9339 43.6946C30.8775 43.327 33.1586 43.9555 35.5725 44.6219C37.5715 45.1733 39.6376 45.7443 42.9357 45.7443C42.9609 45.7443 42.986 45.7443 43.0126 45.7443C46.4351 45.7345 48.5751 45.1312 50.644 44.5476C53.1096 43.8517 55.4383 43.1938 59.393 43.602C62.8587 43.9584 66.2756 45.012 69.5458 46.7334C70.092 47.021 70.303 47.6986 70.0166 48.2485C69.8182 48.6301 69.4299 48.849 69.0276 48.849Z" fill="#0284EB"/>
<path d="M29.1996 53.9753C26.2828 53.9753 23.313 53.7088 20.3263 53.1771C19.7187 53.0691 19.3135 52.4868 19.4211 51.8766C19.5287 51.2663 20.1084 50.8594 20.7161 50.9675C24.8635 51.7054 28.9747 51.9102 32.9336 51.5749C34.8642 51.4122 39.3357 50.5087 47.4547 48.8701L47.8304 48.7943C53.5327 47.6425 56.1352 47.1164 59.8105 47.7547C62.2803 48.1826 64.6858 49.0496 66.9572 50.3277C67.495 50.6308 67.6878 51.3154 67.386 51.8555C67.0843 52.3956 66.4026 52.5878 65.8648 52.2862C63.8141 51.1316 61.6503 50.3516 59.4305 49.9658C56.1659 49.399 53.8554 49.8662 48.2705 50.9941L47.8947 51.0699C39.0773 52.8488 35.096 53.6429 33.1208 53.8098C31.8286 53.9206 30.5197 53.9753 29.1996 53.9753Z" fill="#0284EB"/>
<path d="M27.0359 58.4001C26.4617 58.4001 25.9728 57.9582 25.9239 57.3718C25.8722 56.7545 26.329 56.2115 26.9437 56.1596C29.996 55.9015 33.0929 55.4736 36.148 54.8858C39.0704 54.3246 41.1602 53.7732 43.0042 53.2864C45.6066 52.599 47.6629 52.0575 50.4889 51.9536C54.3975 51.8119 58.4416 52.5765 62.5053 54.232C63.0766 54.4649 63.3532 55.1201 63.1213 55.6939C62.8894 56.2677 62.2371 56.5454 61.6657 56.3126C57.8968 54.7763 54.1642 54.0651 50.5713 54.1969C47.9926 54.2923 46.1389 54.7805 43.5727 55.4582C41.6952 55.9534 39.5663 56.516 36.5685 57.0912C33.4366 57.693 30.2614 58.1322 27.1309 58.3973C27.0987 58.3987 27.068 58.4001 27.0359 58.4001Z" fill="#0284EB"/>
<path d="M92.527 39.6472C92.4815 39.1889 92.2865 38.8328 91.9418 38.5791C91.5971 38.3253 91.1293 38.1984 90.5384 38.1984C90.1368 38.1984 89.7978 38.2552 89.5213 38.3688C89.2448 38.4787 89.0327 38.6321 88.8849 38.8291C88.741 39.026 88.669 39.2495 88.669 39.4995C88.6615 39.7078 88.705 39.8897 88.7997 40.045C88.8982 40.2003 89.0327 40.3347 89.2031 40.4484C89.3736 40.5582 89.5705 40.6548 89.794 40.7381C90.0175 40.8177 90.2562 40.8859 90.5099 40.9427L91.5554 41.1927C92.063 41.3063 92.5289 41.4578 92.9531 41.6472C93.3774 41.8366 93.7448 42.0696 94.0554 42.3461C94.366 42.6226 94.6065 42.9484 94.777 43.3234C94.9512 43.6984 95.0402 44.1283 95.044 44.6131C95.0402 45.3253 94.8584 45.9427 94.4986 46.4654C94.1425 46.9844 93.6274 47.3878 92.9531 47.6756C92.2827 47.9597 91.474 48.1018 90.527 48.1018C89.5876 48.1018 88.7694 47.9578 88.0724 47.67C87.3793 47.3821 86.8376 46.956 86.4474 46.3916C86.0611 45.8234 85.8584 45.1207 85.8395 44.2836H88.2202C88.2467 44.6738 88.3584 44.9995 88.5554 45.2609C88.7562 45.5185 89.0232 45.7135 89.3565 45.8461C89.6937 45.9749 90.0743 46.0393 90.4986 46.0393C90.9152 46.0393 91.277 45.9787 91.5838 45.8575C91.8944 45.7363 92.1349 45.5677 92.3054 45.3518C92.4759 45.1359 92.5611 44.8878 92.5611 44.6075C92.5611 44.3461 92.4834 44.1264 92.3281 43.9484C92.1766 43.7703 91.9531 43.6188 91.6577 43.4938C91.366 43.3688 91.008 43.2552 90.5838 43.1529L89.3168 42.8347C88.3357 42.5961 87.5611 42.223 86.9929 41.7154C86.4247 41.2078 86.1425 40.5241 86.1463 39.6643C86.1425 38.9597 86.33 38.3442 86.7088 37.8177C87.0914 37.2912 87.616 36.8802 88.2827 36.5847C88.9493 36.2893 89.7069 36.1416 90.5554 36.1416C91.419 36.1416 92.1728 36.2893 92.8168 36.5847C93.4645 36.8802 93.9683 37.2912 94.3281 37.8177C94.688 38.3442 94.8736 38.9541 94.8849 39.6472H92.527ZM100.631 48.1075C99.733 48.1075 98.9602 47.9256 98.3125 47.562C97.6686 47.1946 97.1723 46.6756 96.8239 46.0052C96.4754 45.331 96.3011 44.5336 96.3011 43.6131C96.3011 42.7154 96.4754 41.9275 96.8239 41.2495C97.1723 40.5715 97.6629 40.0431 98.2955 39.6643C98.9318 39.2855 99.678 39.0961 100.534 39.0961C101.11 39.0961 101.646 39.1889 102.142 39.3745C102.642 39.5563 103.078 39.831 103.449 40.1984C103.824 40.5658 104.116 41.0279 104.324 41.5847C104.532 42.1378 104.636 42.7855 104.636 43.5279V44.1927H97.267V42.6927H102.358C102.358 42.3442 102.282 42.0355 102.131 41.7666C101.979 41.4976 101.769 41.2874 101.5 41.1359C101.235 40.9806 100.926 40.9029 100.574 40.9029C100.206 40.9029 99.8807 40.9881 99.5966 41.1586C99.3163 41.3253 99.0966 41.5506 98.9375 41.8347C98.7784 42.115 98.697 42.4275 98.6932 42.7722V44.1984C98.6932 44.6302 98.7727 45.0033 98.9318 45.3177C99.0947 45.6321 99.3239 45.8745 99.6193 46.045C99.9148 46.2154 100.265 46.3006 100.67 46.3006C100.939 46.3006 101.186 46.2628 101.409 46.187C101.633 46.1113 101.824 45.9976 101.983 45.8461C102.142 45.6946 102.263 45.509 102.347 45.2893L104.585 45.437C104.472 45.9749 104.239 46.4446 103.886 46.8461C103.538 47.2438 103.087 47.5544 102.534 47.7779C101.985 47.9976 101.35 48.1075 100.631 48.1075ZM106.216 47.937V39.2097H108.562V40.7325H108.653C108.813 40.1908 109.08 39.7817 109.455 39.5052C109.83 39.2249 110.261 39.0847 110.75 39.0847C110.871 39.0847 111.002 39.0923 111.142 39.1075C111.282 39.1226 111.405 39.1435 111.511 39.17V41.3177C111.398 41.2836 111.241 41.2533 111.04 41.2268C110.839 41.2003 110.655 41.187 110.489 41.187C110.133 41.187 109.814 41.2647 109.534 41.42C109.258 41.5715 109.038 41.7836 108.875 42.0563C108.716 42.3291 108.636 42.6435 108.636 42.9995V47.937H106.216ZM121.165 39.2097L118.114 47.937H115.386L112.335 39.2097H114.892L116.705 45.4541H116.795L118.602 39.2097H121.165ZM122.403 47.937V39.2097H124.824V47.937H122.403ZM123.619 38.0847C123.259 38.0847 122.951 37.9654 122.693 37.7268C122.439 37.4844 122.312 37.1946 122.312 36.8575C122.312 36.5241 122.439 36.2381 122.693 35.9995C122.951 35.7571 123.259 35.6359 123.619 35.6359C123.979 35.6359 124.286 35.7571 124.54 35.9995C124.797 36.2381 124.926 36.5241 124.926 36.8575C124.926 37.1946 124.797 37.4844 124.54 37.7268C124.286 37.9654 123.979 38.0847 123.619 38.0847ZM130.706 48.1075C129.812 48.1075 129.043 47.9181 128.399 47.5393C127.759 47.1567 127.267 46.6264 126.922 45.9484C126.581 45.2703 126.411 44.49 126.411 43.6075C126.411 42.7135 126.583 41.9294 126.928 41.2552C127.276 40.5772 127.77 40.0488 128.411 39.67C129.051 39.2874 129.812 39.0961 130.695 39.0961C131.456 39.0961 132.123 39.2344 132.695 39.5109C133.267 39.7874 133.719 40.1756 134.053 40.6756C134.386 41.1756 134.57 41.7628 134.604 42.437H132.32C132.255 42.0014 132.085 41.651 131.808 41.3859C131.536 41.1169 131.178 40.9825 130.734 40.9825C130.359 40.9825 130.032 41.0847 129.751 41.2893C129.475 41.49 129.259 41.7836 129.104 42.17C128.948 42.5563 128.871 43.0241 128.871 43.5734C128.871 44.1302 128.946 44.6037 129.098 44.9938C129.253 45.384 129.471 45.6813 129.751 45.8859C130.032 46.0904 130.359 46.1927 130.734 46.1927C131.011 46.1927 131.259 46.1359 131.479 46.0222C131.702 45.9086 131.886 45.7438 132.03 45.5279C132.178 45.3082 132.274 45.045 132.32 44.7381H134.604C134.566 45.4048 134.384 45.9919 134.058 46.4995C133.736 47.0033 133.291 47.3972 132.723 47.6813C132.155 47.9654 131.482 48.1075 130.706 48.1075ZM136.153 47.937V39.2097H138.574V47.937H136.153ZM137.369 38.0847C137.009 38.0847 136.701 37.9654 136.443 37.7268C136.189 37.4844 136.062 37.1946 136.062 36.8575C136.062 36.5241 136.189 36.2381 136.443 35.9995C136.701 35.7571 137.009 35.6359 137.369 35.6359C137.729 35.6359 138.036 35.7571 138.29 35.9995C138.547 36.2381 138.676 36.5241 138.676 36.8575C138.676 37.1946 138.547 37.4844 138.29 37.7268C138.036 37.9654 137.729 38.0847 137.369 38.0847ZM144.456 48.1075C143.573 48.1075 142.81 47.92 142.166 47.545C141.526 47.1662 141.032 46.6397 140.683 45.9654C140.335 45.2874 140.161 44.5014 140.161 43.6075C140.161 42.706 140.335 41.9181 140.683 41.2438C141.032 40.5658 141.526 40.0393 142.166 39.6643C142.81 39.2855 143.573 39.0961 144.456 39.0961C145.339 39.0961 146.1 39.2855 146.74 39.6643C147.384 40.0393 147.88 40.5658 148.229 41.2438C148.577 41.9181 148.751 42.706 148.751 43.6075C148.751 44.5014 148.577 45.2874 148.229 45.9654C147.88 46.6397 147.384 47.1662 146.74 47.545C146.1 47.92 145.339 48.1075 144.456 48.1075ZM144.467 46.2325C144.869 46.2325 145.204 46.1188 145.473 45.8916C145.742 45.6605 145.945 45.3461 146.081 44.9484C146.221 44.5506 146.291 44.098 146.291 43.5904C146.291 43.0828 146.221 42.6302 146.081 42.2325C145.945 41.8347 145.742 41.5203 145.473 41.2893C145.204 41.0582 144.869 40.9427 144.467 40.9427C144.062 40.9427 143.721 41.0582 143.445 41.2893C143.172 41.5203 142.965 41.8347 142.825 42.2325C142.689 42.6302 142.621 43.0828 142.621 43.5904C142.621 44.098 142.689 44.5506 142.825 44.9484C142.965 45.3461 143.172 45.6605 143.445 45.8916C143.721 46.1188 144.062 46.2325 144.467 46.2325ZM156.517 48.1018C155.96 48.1018 155.464 48.0052 155.028 47.812C154.593 47.615 154.248 47.3253 153.994 46.9427C153.744 46.5563 153.619 46.0753 153.619 45.4995C153.619 45.0147 153.708 44.6075 153.886 44.2779C154.064 43.9484 154.307 43.6832 154.614 43.4825C154.92 43.2817 155.269 43.1302 155.659 43.0279C156.053 42.9256 156.466 42.8537 156.898 42.812C157.405 42.759 157.814 42.7097 158.125 42.6643C158.436 42.615 158.661 42.5431 158.801 42.4484C158.941 42.3537 159.011 42.2135 159.011 42.0279V41.9938C159.011 41.634 158.898 41.3556 158.67 41.1586C158.447 40.9616 158.129 40.8631 157.716 40.8631C157.28 40.8631 156.934 40.9597 156.676 41.1529C156.419 41.3423 156.248 41.581 156.165 41.8688L153.926 41.687C154.04 41.1567 154.263 40.6984 154.597 40.312C154.93 39.9219 155.36 39.6226 155.886 39.4143C156.417 39.2022 157.03 39.0961 157.727 39.0961C158.212 39.0961 158.676 39.1529 159.119 39.2666C159.566 39.3802 159.962 39.5563 160.307 39.795C160.655 40.0336 160.93 40.3404 161.131 40.7154C161.331 41.0866 161.432 41.5317 161.432 42.0506V47.937H159.136V46.7268H159.068C158.928 46.9995 158.741 47.24 158.506 47.4484C158.271 47.6529 157.989 47.8139 157.659 47.9313C157.33 48.045 156.949 48.1018 156.517 48.1018ZM157.21 46.4313C157.566 46.4313 157.881 46.3613 158.153 46.2211C158.426 46.0772 158.64 45.884 158.795 45.6416C158.951 45.3991 159.028 45.1245 159.028 44.8177V43.8916C158.953 43.9408 158.848 43.9863 158.716 44.0279C158.587 44.0658 158.441 44.1018 158.278 44.1359C158.116 44.1662 157.953 44.1946 157.79 44.2211C157.627 44.2438 157.479 44.2647 157.347 44.2836C157.063 44.3253 156.814 44.3916 156.602 44.4825C156.39 44.5734 156.225 44.6965 156.108 44.8518C155.991 45.0033 155.932 45.1927 155.932 45.42C155.932 45.7495 156.051 46.0014 156.29 46.1756C156.532 46.3461 156.839 46.4313 157.21 46.4313ZM165.73 36.3006V47.937H163.31V36.3006H165.73ZM175.315 48.1075C174.421 48.1075 173.652 47.9181 173.009 47.5393C172.368 47.1567 171.876 46.6264 171.531 45.9484C171.19 45.2703 171.02 44.49 171.02 43.6075C171.02 42.7135 171.192 41.9294 171.537 41.2552C171.885 40.5772 172.38 40.0488 173.02 39.67C173.66 39.2874 174.421 39.0961 175.304 39.0961C176.065 39.0961 176.732 39.2344 177.304 39.5109C177.876 39.7874 178.329 40.1756 178.662 40.6756C178.995 41.1756 179.179 41.7628 179.213 42.437H176.929C176.865 42.0014 176.694 41.651 176.418 41.3859C176.145 41.1169 175.787 40.9825 175.344 40.9825C174.969 40.9825 174.641 41.0847 174.361 41.2893C174.084 41.49 173.868 41.7836 173.713 42.17C173.558 42.5563 173.48 43.0241 173.48 43.5734C173.48 44.1302 173.556 44.6037 173.707 44.9938C173.863 45.384 174.08 45.6813 174.361 45.8859C174.641 46.0904 174.969 46.1927 175.344 46.1927C175.62 46.1927 175.868 46.1359 176.088 46.0222C176.312 45.9086 176.495 45.7438 176.639 45.5279C176.787 45.3082 176.884 45.045 176.929 44.7381H179.213C179.175 45.4048 178.993 45.9919 178.668 46.4995C178.346 47.0033 177.901 47.3972 177.332 47.6813C176.764 47.9654 176.092 48.1075 175.315 48.1075ZM183.183 36.3006V47.937H180.763V36.3006H183.183ZM185.122 47.937V39.2097H187.543V47.937H185.122ZM186.338 38.0847C185.978 38.0847 185.67 37.9654 185.412 37.7268C185.158 37.4844 185.031 37.1946 185.031 36.8575C185.031 36.5241 185.158 36.2381 185.412 35.9995C185.67 35.7571 185.978 35.6359 186.338 35.6359C186.698 35.6359 187.005 35.7571 187.259 35.9995C187.516 36.2381 187.645 36.5241 187.645 36.8575C187.645 37.1946 187.516 37.4844 187.259 37.7268C187.005 37.9654 186.698 38.0847 186.338 38.0847ZM193.459 48.1075C192.561 48.1075 191.788 47.9256 191.141 47.562C190.497 47.1946 190 46.6756 189.652 46.0052C189.304 45.331 189.129 44.5336 189.129 43.6131C189.129 42.7154 189.304 41.9275 189.652 41.2495C190 40.5715 190.491 40.0431 191.124 39.6643C191.76 39.2855 192.506 39.0961 193.362 39.0961C193.938 39.0961 194.474 39.1889 194.97 39.3745C195.47 39.5563 195.906 39.831 196.277 40.1984C196.652 40.5658 196.944 41.0279 197.152 41.5847C197.36 42.1378 197.464 42.7855 197.464 43.5279V44.1927H190.095V42.6927H195.186C195.186 42.3442 195.11 42.0355 194.959 41.7666C194.807 41.4976 194.597 41.2874 194.328 41.1359C194.063 40.9806 193.754 40.9029 193.402 40.9029C193.035 40.9029 192.709 40.9881 192.425 41.1586C192.144 41.3253 191.925 41.5506 191.766 41.8347C191.607 42.115 191.525 42.4275 191.521 42.7722V44.1984C191.521 44.6302 191.601 45.0033 191.76 45.3177C191.923 45.6321 192.152 45.8745 192.447 46.045C192.743 46.2154 193.093 46.3006 193.499 46.3006C193.768 46.3006 194.014 46.2628 194.237 46.187C194.461 46.1113 194.652 45.9976 194.811 45.8461C194.97 45.6946 195.091 45.509 195.175 45.2893L197.413 45.437C197.3 45.9749 197.067 46.4446 196.714 46.8461C196.366 47.2438 195.915 47.5544 195.362 47.7779C194.813 47.9976 194.179 48.1075 193.459 48.1075ZM201.464 42.8916V47.937H199.044V39.2097H201.351V40.7495H201.453C201.646 40.2419 201.97 39.8404 202.425 39.545C202.879 39.2457 203.43 39.0961 204.078 39.0961C204.684 39.0961 205.213 39.2287 205.663 39.4938C206.114 39.759 206.464 40.1378 206.714 40.6302C206.964 41.1188 207.089 41.7022 207.089 42.3802V47.937H204.669V42.812C204.673 42.2779 204.536 41.8613 204.26 41.562C203.983 41.259 203.603 41.1075 203.118 41.1075C202.792 41.1075 202.504 41.1775 202.254 41.3177C202.008 41.4578 201.815 41.6624 201.675 41.9313C201.538 42.1965 201.468 42.5166 201.464 42.8916ZM213.639 39.2097V41.0279H208.384V39.2097H213.639ZM209.577 37.1188H211.997V45.2552C211.997 45.4787 212.031 45.6529 212.099 45.7779C212.168 45.8991 212.262 45.9844 212.384 46.0336C212.509 46.0828 212.652 46.1075 212.815 46.1075C212.929 46.1075 213.043 46.098 213.156 46.0791C213.27 46.0563 213.357 46.0393 213.418 46.0279L213.798 47.8291C213.677 47.8669 213.507 47.9105 213.287 47.9597C213.067 48.0128 212.8 48.045 212.486 48.0563C211.902 48.0791 211.391 48.0014 210.952 47.8234C210.516 47.6453 210.177 47.3688 209.935 46.9938C209.692 46.6188 209.573 46.1453 209.577 45.5734V37.1188ZM219.099 48.1075C218.202 48.1075 217.429 47.9256 216.781 47.562C216.137 47.1946 215.641 46.6756 215.293 46.0052C214.944 45.331 214.77 44.5336 214.77 43.6131C214.77 42.7154 214.944 41.9275 215.293 41.2495C215.641 40.5715 216.132 40.0431 216.764 39.6643C217.401 39.2855 218.147 39.0961 219.003 39.0961C219.579 39.0961 220.115 39.1889 220.611 39.3745C221.111 39.5563 221.546 39.831 221.918 40.1984C222.293 40.5658 222.584 41.0279 222.793 41.5847C223.001 42.1378 223.105 42.7855 223.105 43.5279V44.1927H215.736V42.6927H220.827C220.827 42.3442 220.751 42.0355 220.599 41.7666C220.448 41.4976 220.238 41.2874 219.969 41.1359C219.704 40.9806 219.395 40.9029 219.043 40.9029C218.675 40.9029 218.349 40.9881 218.065 41.1586C217.785 41.3253 217.565 41.5506 217.406 41.8347C217.247 42.115 217.166 42.4275 217.162 42.7722V44.1984C217.162 44.6302 217.241 45.0033 217.401 45.3177C217.563 45.6321 217.793 45.8745 218.088 46.045C218.384 46.2154 218.734 46.3006 219.139 46.3006C219.408 46.3006 219.654 46.2628 219.878 46.187C220.101 46.1113 220.293 45.9976 220.452 45.8461C220.611 45.6946 220.732 45.509 220.815 45.2893L223.054 45.437C222.94 45.9749 222.707 46.4446 222.355 46.8461C222.007 47.2438 221.556 47.5544 221.003 47.7779C220.454 47.9976 219.819 48.1075 219.099 48.1075Z" fill="#0284EB"/>
</svg>
