<svg width="376" height="109" viewBox="0 0 376 109" fill="none" xmlns="http://www.w3.org/2000/svg">
<path d="M375.158 0.59082V63.3783C375.158 75.9065 370.942 88.5666 361.087 96.3027C351.436 103.879 340.779 108.341 325.685 108.341C309.147 108.341 298.372 104.62 285.741 98.174C269.829 90.0539 255.619 77.792 243.161 64.9879C233.043 54.587 218.86 48.0628 203.164 48.0628C190.967 48.0628 179.715 51.9395 170.543 58.6528C170.498 58.6858 170.452 58.7189 170.406 58.752C165.796 62.0956 161.691 66.2009 156.539 68.6271C150.152 71.6347 143.023 73.3086 135.559 73.3086C126.158 73.3086 117.352 70.658 109.871 66.0556C103.356 62.0475 99.1686 55.326 93.8362 49.8415C93.6878 49.6888 93.5382 49.5371 93.3876 49.3865C83.1758 39.0802 69.1819 32.6505 53.5805 32.6505C28.0511 32.6505 6.49281 49.9539 0.157715 73.4977L0.252269 0.59082H375.158Z" fill="url(#paint0_linear_1943_3441)"/>
<defs>
<linearGradient id="paint0_linear_1943_3441" x1="0.157715" y1="60.213" x2="375.158" y2="60.2131" gradientUnits="userSpaceOnUse">
<stop offset="0.125" stop-color="#74C2FF" stop-opacity="0.5"/>
<stop offset="1" stop-color="#026BBF"/>
</linearGradient>
</defs>
</svg>
