<svg width="133" height="149" viewBox="0 0 133 149" fill="none" xmlns="http://www.w3.org/2000/svg">
<path d="M47.5 9.3125V18.625H85.5V9.3125C85.5 4.17025 89.7453 0 95 0C100.255 0 104.5 4.17025 104.5 9.3125V18.625H118.75C126.617 18.625 133 24.8789 133 32.5938V46.5625H0V32.5938C0 24.8789 6.37984 18.625 14.25 18.625H28.5V9.3125C28.5 4.17025 32.7453 0 38 0C43.2547 0 47.5 4.17025 47.5 9.3125ZM0 55.875H133V135.031C133 142.743 126.617 149 118.75 149H14.25C6.37984 149 0 142.743 0 135.031V55.875ZM19 88.4688C19 91.0297 21.1256 93.125 23.75 93.125H33.25C35.8625 93.125 38 91.0297 38 88.4688V79.1562C38 76.5953 35.8625 74.5 33.25 74.5H23.75C21.1256 74.5 19 76.5953 19 79.1562V88.4688ZM57 88.4688C57 91.0297 59.1375 93.125 61.75 93.125H71.25C73.8625 93.125 76 91.0297 76 88.4688V79.1562C76 76.5953 73.8625 74.5 71.25 74.5H61.75C59.1375 74.5 57 76.5953 57 79.1562V88.4688ZM99.75 74.5C97.1375 74.5 95 76.5953 95 79.1562V88.4688C95 91.0297 97.1375 93.125 99.75 93.125H109.25C111.863 93.125 114 91.0297 114 88.4688V79.1562C114 76.5953 111.863 74.5 109.25 74.5H99.75ZM19 125.719C19 128.28 21.1256 130.375 23.75 130.375H33.25C35.8625 130.375 38 128.28 38 125.719V116.406C38 113.845 35.8625 111.75 33.25 111.75H23.75C21.1256 111.75 19 113.845 19 116.406V125.719ZM61.75 111.75C59.1375 111.75 57 113.845 57 116.406V125.719C57 128.28 59.1375 130.375 61.75 130.375H71.25C73.8625 130.375 76 128.28 76 125.719V116.406C76 113.845 73.8625 111.75 71.25 111.75H61.75ZM95 125.719C95 128.28 97.1375 130.375 99.75 130.375H109.25C111.863 130.375 114 128.28 114 125.719V116.406C114 113.845 111.863 111.75 109.25 111.75H99.75C97.1375 111.75 95 113.845 95 116.406V125.719Z" fill="#026BBF"/>
</svg>
