<svg width="77" height="77" viewBox="0 0 77 77" fill="none" xmlns="http://www.w3.org/2000/svg">
<mask id="mask0_356_9473" style="mask-type:alpha" maskUnits="userSpaceOnUse" x="0" y="0" width="77" height="77">
<circle cx="38.7757" cy="38.5682" r="37.9998" fill="#C4C4C4"/>
</mask>
<g mask="url(#mask0_356_9473)">
<rect x="-3.29541" y="26.1768" width="84.2503" height="51.3726" fill="#303336"/>
<rect x="1.30176" y="-25.1826" width="79.2788" height="51.3726" fill="#F3F4F6"/>
<path d="M43.7671 54.015C60.0986 54.015 73.3379 51.5991 73.3379 48.6188C73.3379 45.6386 60.0986 43.2227 43.7671 43.2227C27.4356 43.2227 14.1963 45.6386 14.1963 48.6188C14.1963 51.5991 27.4356 54.015 43.7671 54.015Z" fill="#74C2FF"/>
<path d="M59.9518 55.8988C61.898 55.8988 63.4758 55.6114 63.4758 55.257C63.4758 54.9026 61.898 54.6152 59.9518 54.6152C58.0055 54.6152 56.4277 54.9026 56.4277 55.257C56.4277 55.6114 58.0055 55.8988 59.9518 55.8988Z" fill="#74C2FF"/>
<path d="M44.7623 61.2025C52.3188 61.2025 58.4446 60.0838 58.4446 58.7038C58.4446 57.3238 52.3188 56.2051 44.7623 56.2051C37.2058 56.2051 31.0801 57.3238 31.0801 58.7038C31.0801 60.0838 37.2058 61.2025 44.7623 61.2025Z" fill="#74C2FF"/>
<path d="M35.8802 57.9451C45.2781 57.9451 52.8966 56.5543 52.8966 54.8387C52.8966 53.1232 45.2781 51.7324 35.8802 51.7324C26.4823 51.7324 18.8638 53.1232 18.8638 54.8387C18.8638 56.5543 26.4823 57.9451 35.8802 57.9451Z" fill="#74C2FF"/>
<path d="M-4.46631 26.1904L0.775972 43.0853H19.7634" fill="#CED3D8"/>
<path d="M-4.46631 26.1904L0.775972 43.0853H19.7634H77.1748V26.1904H-4.46631Z" fill="#CED3D8"/>
<path d="M27.4308 40.7031V46.2094L26.022 48.5904V43.0841L27.4308 40.7031Z" fill="#8E959B"/>
<path d="M50.7468 40.3655L49.0493 41.1857V46.6958L46.2886 43.1566V37.6465L50.7468 40.3655Z" fill="#8E959B"/>
<path d="M56.3706 42.4469V47.9571L53.8984 46.6469V41.1406L56.3706 42.4469Z" fill="#8E959B"/>
<path d="M60.0053 43.0852V48.5916L56.3711 47.9574V42.4473L60.0053 43.0852Z" fill="#686F75"/>
<path d="M31.6952 41.2841V46.4867L27.4307 46.2094V40.7031L31.6952 41.2841Z" fill="#686F75"/>
<path d="M35.1358 38.4258V43.9321L31.6953 46.4878V41.2853L35.1358 38.4258Z" fill="#8E959B"/>
<path d="M40.5167 39.0068V44.5131L35.1357 43.9321V38.4258L40.5167 39.0068Z" fill="#686F75"/>
<path d="M43.7672 40.7527V46.2628L40.5166 44.5122V39.0059L43.7672 40.7527Z" fill="#8E959B"/>
<path d="M46.2881 37.6465V43.1566L43.7666 46.2629V40.7528L46.2881 37.6465Z" fill="#686F75"/>
<path d="M53.8987 41.1406V46.6469L49.0493 46.6963V41.1862L53.8987 41.1406Z" fill="#686F75"/>
<rect x="60.0054" y="43.084" width="17.2645" height="5.50632" fill="#686F75"/>
<path d="M-2.58838 43.084H26.0213V48.5903H-2.58838L-2.58838 43.084Z" fill="#686F75"/>
</g>
</svg>
