<svg width="77" height="77" viewBox="0 0 77 77" fill="none" xmlns="http://www.w3.org/2000/svg">
<mask id="mask0_356_9500" style="mask-type:alpha" maskUnits="userSpaceOnUse" x="0" y="0" width="77" height="77">
<circle cx="38.7752" cy="38.5682" r="37.9998" fill="#C4C4C4"/>
</mask>
<g mask="url(#mask0_356_9500)">
<rect x="-6.62061" y="-38.7598" width="84.2503" height="64.9817" fill="#F3F4F6"/>
<rect x="-6.62109" y="26.2217" width="84.2503" height="51.3726" fill="#303336"/>
<path d="M38.3218 50.9564C54.6533 50.9564 67.8926 48.5405 67.8926 45.5603C67.8926 42.58 54.6533 40.1641 38.3218 40.1641C21.9903 40.1641 8.75098 42.58 8.75098 45.5603C8.75098 48.5405 21.9903 50.9564 38.3218 50.9564Z" fill="#534F39"/>
<path d="M15.0856 38.0609C17.0318 38.0609 18.6096 37.7736 18.6096 37.4191C18.6096 37.0647 17.0318 36.7773 15.0856 36.7773C13.1393 36.7773 11.5615 37.0647 11.5615 37.4191C11.5615 37.7736 13.1393 38.0609 15.0856 38.0609Z" fill="#534F39"/>
<path d="M25.2357 32.2485C28.8242 32.2485 31.7332 31.7181 31.7332 31.0637C31.7332 30.4094 28.8242 29.8789 25.2357 29.8789C21.6473 29.8789 18.7383 30.4094 18.7383 31.0637C18.7383 31.7181 21.6473 32.2485 25.2357 32.2485Z" fill="#534F39"/>
<path d="M37.3229 37.9682C44.8794 37.9682 51.0051 36.8494 51.0051 35.4694C51.0051 34.0894 44.8794 32.9707 37.3229 32.9707C29.7664 32.9707 23.6406 34.0894 23.6406 35.4694C23.6406 36.8494 29.7664 37.9682 37.3229 37.9682Z" fill="#534F39"/>
<path d="M46.2054 42.4451C55.6033 42.4451 63.2218 41.0543 63.2218 39.3387C63.2218 37.6232 55.6033 36.2324 46.2054 36.2324C36.8075 36.2324 29.189 37.6232 29.189 39.3387C29.189 41.0543 36.8075 42.4451 46.2054 42.4451Z" fill="#534F39"/>
<path d="M67.7902 49.7399C67.7902 50.2298 67.4294 50.7083 66.7535 51.1602C63.3358 53.4539 51.856 55.1399 38.2232 55.1399C24.5865 55.1399 13.1068 53.4539 9.68905 51.1602C9.0131 50.7083 8.65234 50.2298 8.65234 49.7399C8.65234 46.7589 21.8903 44.3438 38.2232 44.3438C54.5522 44.3438 67.7902 46.7589 67.7902 49.7399Z" fill="#CED3D8"/>
<path d="M67.7902 49.7383V51.0598C67.7902 54.0408 54.5522 56.4598 38.2232 56.4598C21.8903 56.4598 8.65234 54.0408 8.65234 51.0598V49.7383C8.65234 50.2282 9.0131 50.7066 9.68905 51.1585C13.1068 53.4522 24.5865 55.1383 38.2232 55.1383C51.856 55.1383 63.3358 53.4522 66.7535 51.1585C67.4294 50.7066 67.7902 50.2282 67.7902 49.7383Z" fill="#8E959B"/>
<path d="M31.2737 47.0523C31.0848 46.8519 30.8215 46.7383 30.5461 46.7383H29.3816C29.1083 46.7383 28.8468 46.8502 28.6581 47.0479L25.3771 50.4865C24.8171 51.0734 25.2323 52.0453 26.0434 52.0465L26.0842 52.0465C26.3465 52.0469 26.5939 51.9248 26.7532 51.7164C26.9122 51.5084 27.1591 51.3864 27.421 51.3864H32.4788C32.7544 51.3864 33.0177 51.5001 33.2066 51.7006L33.2657 51.7633C33.4341 51.942 33.6687 52.0433 33.9143 52.0433C34.6955 52.0433 35.0986 51.1095 34.5626 50.541L31.2737 47.0523ZM30.1188 50.0762C29.5305 50.0762 29.2238 49.376 29.6228 48.9436C29.8903 48.6537 30.3483 48.654 30.6154 48.9442C31.0136 49.3768 30.7068 50.0762 30.1188 50.0762Z" fill="#8E959B"/>
<path d="M47.8421 47.0523C47.6531 46.8519 47.3899 46.7383 47.1144 46.7383H45.95C45.6766 46.7383 45.4152 46.8502 45.2265 47.0479L41.9455 50.4865C41.3855 51.0734 41.8006 52.0453 42.6118 52.0465L42.6526 52.0465C42.9149 52.0469 43.1623 51.9248 43.3216 51.7164C43.4806 51.5084 43.7275 51.3864 43.9893 51.3864H49.0472C49.3227 51.3864 49.586 51.5001 49.775 51.7006L49.8341 51.7633C50.0025 51.942 50.2371 52.0433 50.4826 52.0433C51.2639 52.0433 51.6669 51.1095 51.131 50.541L47.8421 47.0523ZM46.6872 50.0762C46.0989 50.0762 45.7922 49.376 46.1911 48.9436C46.4586 48.6537 46.9166 48.654 47.1838 48.9442C47.5819 49.3768 47.2751 50.0762 46.6872 50.0762Z" fill="#8E959B"/>
<path d="M36.6631 48.5954C36.2788 48.2879 36.4962 47.668 36.9885 47.668C37.0926 47.668 37.1943 47.6992 37.2805 47.7575L37.7586 48.0813C38.1115 48.3203 38.5771 48.3093 38.9184 48.054L39.2874 47.7779C39.3827 47.7065 39.4987 47.668 39.6178 47.668C40.1329 47.668 40.3668 48.3116 39.9718 48.6423L39.4798 49.0543C39.3017 49.2034 39.1988 49.4237 39.1988 49.6559V49.8876C39.1988 50.3731 38.8052 50.7667 38.3197 50.7667C37.8342 50.7667 37.4406 50.3731 37.4406 49.8876V49.5752C37.4406 49.349 37.3378 49.1351 37.1612 48.9938L36.6631 48.5954Z" fill="#8E959B"/>
<path d="M-1.96924 61.1739L0.309237 60.084H10.608L8.26491 61.1739H-1.96924Z" fill="#CED3D8"/>
<path d="M13.623 61.1739L15.9015 60.084H26.2002L23.8572 61.1739H13.623Z" fill="#CED3D8"/>
<path d="M29.2158 61.1739L31.4943 60.084H41.793L39.45 61.1739H29.2158Z" fill="#CED3D8"/>
<path d="M44.8076 61.1739L47.0861 60.084H57.3848L55.0418 61.1739H44.8076Z" fill="#CED3D8"/>
<path d="M60.4004 61.1739L62.6789 60.084H72.9776L70.6345 61.1739H60.4004Z" fill="#CED3D8"/>
</g>
</svg>
