<svg width="77" height="77" viewBox="0 0 77 77" fill="none" xmlns="http://www.w3.org/2000/svg">
<mask id="mask0_356_9356" style="mask-type:alpha" maskUnits="userSpaceOnUse" x="0" y="0" width="77" height="77">
<circle cx="38.1746" cy="38.9002" r="37.9998" fill="#C4C4C4"/>
</mask>
<g mask="url(#mask0_356_9356)">
<rect x="-5.91602" y="39.875" width="84.2503" height="51.3726" fill="#303336"/>
<rect x="-1.31934" y="-11.4844" width="79.2788" height="51.3726" fill="#F3F4F6"/>
<path d="M-7.0874 39.8887L-1.60237 64.4291H18.2643" fill="#CED3D8"/>
<path d="M-7.0874 39.8887L-1.60237 64.4291H18.2643H78.3342V39.8887H-7.0874Z" fill="#CED3D8"/>
<rect x="-4.09375" y="64.4277" width="82.0531" height="5.50632" fill="#686F75"/>
<path d="M38.3198 62.3178C54.6514 62.3178 67.8907 59.9018 67.8907 56.9216C67.8907 53.9413 54.6514 51.5254 38.3198 51.5254C21.9883 51.5254 8.74902 53.9413 8.74902 56.9216C8.74902 59.9018 21.9883 62.3178 38.3198 62.3178Z" fill="#74C2FF"/>
<path d="M15.0836 49.4222C17.0299 49.4222 18.6077 49.1349 18.6077 48.7804C18.6077 48.426 17.0299 48.1387 15.0836 48.1387C13.1373 48.1387 11.5596 48.426 11.5596 48.7804C11.5596 49.1349 13.1373 49.4222 15.0836 49.4222Z" fill="#74C2FF"/>
<path d="M25.2338 43.6118C28.8222 43.6118 31.7312 43.0813 31.7312 42.427C31.7312 41.7726 28.8222 41.2422 25.2338 41.2422C21.6453 41.2422 18.7363 41.7726 18.7363 42.427C18.7363 43.0813 21.6453 43.6118 25.2338 43.6118Z" fill="#74C2FF"/>
<path d="M37.3214 49.3295C44.8779 49.3295 51.0036 48.2108 51.0036 46.8308C51.0036 45.4508 44.8779 44.332 37.3214 44.332C29.7649 44.332 23.6392 45.4508 23.6392 46.8308C23.6392 48.2108 29.7649 49.3295 37.3214 49.3295Z" fill="#74C2FF"/>
<path d="M46.2039 53.8083C55.6018 53.8083 63.2203 52.4176 63.2203 50.702C63.2203 48.9865 55.6018 47.5957 46.2039 47.5957C36.806 47.5957 29.1875 48.9865 29.1875 50.702C29.1875 52.4176 36.806 53.8083 46.2039 53.8083Z" fill="#74C2FF"/>
<path d="M46.294 46.6909V37.9302H50.5585V29.1732H46.294V27.0391H30.3446V29.1732H26.0801V37.9302H30.3446V46.6909H46.294Z" fill="#686F75"/>
<path d="M38.2969 40.4171C41.4869 40.4171 44.0729 37.8311 44.0729 34.6412C44.0729 31.4512 41.4869 28.8652 38.2969 28.8652C35.107 28.8652 32.521 31.4512 32.521 34.6412C32.521 37.8311 35.107 40.4171 38.2969 40.4171Z" fill="#8E959B"/>
<path d="M38.2969 37.9307C40.1131 37.9307 41.5855 36.4584 41.5855 34.6421C41.5855 32.8259 40.1131 31.3535 38.2969 31.3535C36.4807 31.3535 35.0083 32.8259 35.0083 34.6421C35.0083 36.4584 36.4807 37.9307 38.2969 37.9307Z" fill="#686F75"/>
<path d="M41.5816 15.2945C41.5816 15.5603 41.5512 15.8223 41.4905 16.0691H35.0955C35.0348 15.8223 35.0044 15.5603 35.0044 15.2945C35.0044 13.4793 36.4778 12.0059 38.293 12.0059C40.1082 12.0059 41.5816 13.4793 41.5816 15.2945Z" fill="#8E959B"/>
<path d="M46.2944 20.7962V23.4354H30.1514V20.7962C30.1514 18.1835 32.2666 16.0684 34.8754 16.0684H41.5665C44.1754 16.0684 46.2944 18.1835 46.2944 20.7962Z" fill="#686F75"/>
<path d="M26.9575 55.096H49.6473L48.3372 49.5176H29.1183H28.4119L26.9575 55.096Z" fill="#686F75"/>
<path d="M47.5698 46.6914H29.2129V49.5205H47.5698V46.6914Z" fill="#8E959B"/>
<path d="M26.0803 28.0117H22.4917V39.0319H26.0803V28.0117Z" fill="#8E959B"/>
<path d="M54.1472 28.0117H50.5586V39.0319H54.1472V28.0117Z" fill="#8E959B"/>
<path d="M47.4727 27.0261V23.4375L29.1157 23.4375V27.0261L47.4727 27.0261Z" fill="#8E959B"/>
</g>
</svg>
