<svg width="77" height="77" viewBox="0 0 77 77" fill="none" xmlns="http://www.w3.org/2000/svg">
<mask id="mask0_356_9447" style="mask-type:alpha" maskUnits="userSpaceOnUse" x="0" y="0" width="77" height="77">
<circle cx="38.1748" cy="38.9004" r="38" fill="#C4C4C4"/>
</mask>
<g mask="url(#mask0_356_9447)">
<rect x="-13.5884" y="23.4512" width="103.225" height="62.9424" fill="#303336"/>
<rect x="-7.82617" y="-39.4746" width="95.9177" height="62.9424" fill="#F3F4F6"/>
<path d="M-13.5756 23.4668L-13.5757 44.1667H22.4569" fill="#CED3D8"/>
<path d="M-13.5756 23.4668L-13.5757 44.1667H22.4569H85.1303V23.4668L-13.5756 23.4668Z" fill="#CED3D8"/>
<path d="M-16.3804 44.168H85.1301V50.9144H-15.4456L-16.3804 44.168Z" fill="#686F75"/>
<path d="M38.5229 35.3259C52.2009 35.3259 63.289 33.3025 63.289 30.8065C63.289 28.3105 52.2009 26.2871 38.5229 26.2871C24.845 26.2871 13.7568 28.3105 13.7568 30.8065C13.7568 33.3025 24.845 35.3259 38.5229 35.3259Z" fill="#74C2FF"/>
<path d="M52.0813 36.9031C53.7114 36.9031 55.0328 36.6625 55.0328 36.3656C55.0328 36.0688 53.7114 35.8281 52.0813 35.8281C50.4513 35.8281 49.1299 36.0688 49.1299 36.3656C49.1299 36.6625 50.4513 36.9031 52.0813 36.9031Z" fill="#74C2FF"/>
<path d="M39.3595 41.3456C45.6882 41.3456 50.8186 40.4087 50.8186 39.2529C50.8186 38.0971 45.6882 37.1602 39.3595 37.1602C33.0308 37.1602 27.9004 38.0971 27.9004 39.2529C27.9004 40.4087 33.0308 41.3456 39.3595 41.3456Z" fill="#74C2FF"/>
<path d="M31.9205 38.6173C39.7914 38.6173 46.172 37.4525 46.172 36.0157C46.172 34.5788 39.7914 33.4141 31.9205 33.4141C24.0496 33.4141 17.6689 34.5788 17.6689 36.0157C17.6689 37.4525 24.0496 38.6173 31.9205 38.6173Z" fill="#74C2FF"/>
<path d="M24.5331 35.8018C23.9539 35.5972 23.2425 35.3422 22.7734 34.8889L22.7707 34.8862C22.591 34.7129 22.2984 34.4305 22.3548 34.0578V33.8187C22.361 33.8599 22.3712 33.8996 22.3844 33.938C22.4617 34.1616 22.6442 34.3377 22.7707 34.4598L22.7734 34.4625C23.2425 34.9158 23.9539 35.1707 24.5331 35.3754C25.0966 35.5737 25.5909 35.6902 25.8773 35.7563C28.1816 36.2694 30.9424 36.4047 31.4681 36.4299C34.2981 36.559 36.4041 36.3922 36.9361 36.3481C37.9183 36.2662 39.0767 36.1655 40.4776 35.8507C41.7116 35.5768 42.6308 35.2494 43.2415 35.0007C45.7472 33.8171 48.2562 32.6303 50.7619 31.4467C50.976 31.3523 51.2751 31.198 51.5363 30.9808C51.6923 30.8529 51.9543 30.6358 52.0471 30.3444C52.0685 30.2771 52.0809 30.2059 52.0809 30.1309V30.5573C52.0809 30.9571 51.7284 31.2498 51.5363 31.4072C51.2751 31.6244 50.976 31.7787 50.7619 31.8731C48.2562 33.0568 45.7472 34.2435 43.2415 35.4272C42.6308 35.6759 41.7116 36.0033 40.4776 36.2771C39.0767 36.5919 37.9183 36.6927 36.9361 36.7745C36.4041 36.8186 34.2981 36.9854 31.4681 36.8563C30.9424 36.8312 28.1816 36.6958 25.8773 36.1827C25.5909 36.1166 25.0966 36.0001 24.5331 35.8018Z" fill="#303336"/>
<path fill-rule="evenodd" clip-rule="evenodd" d="M51.5552 29.311C51.1712 28.993 50.7021 28.8136 50.1922 28.6216C49.5941 28.3981 49.0337 28.2501 48.5174 28.1368C47.7147 27.9574 46.5689 27.7464 44.8941 27.589C42.2701 27.3454 40.1917 27.4024 39.7109 27.4156L39.7 27.4159C39.0389 27.4379 37.1659 27.5166 35.0064 27.8629C33.7189 28.0707 33.0452 28.2564 32.7021 28.3603C31.8994 28.6027 31.2572 28.8797 30.9833 28.9993C30.6087 29.163 30.3474 29.2952 30.2719 29.333C29.6549 29.6447 27.9455 30.46 23.9256 32.3425C23.6423 32.4558 23.211 32.651 22.8584 32.95C22.6664 33.1106 22.402 33.3372 22.3548 33.6489C22.2984 34.0216 22.591 34.3039 22.7707 34.4773L22.7734 34.4799C23.2425 34.9332 23.9539 35.1882 24.5331 35.3928C25.0966 35.5912 25.5909 35.7076 25.8773 35.7737C28.1816 36.2869 30.9424 36.4222 31.4681 36.4474C34.2981 36.5765 36.4041 36.4096 36.9361 36.3656C37.9183 36.2837 39.0767 36.183 40.4776 35.8682C41.7116 35.5943 42.6308 35.2669 43.2415 35.0182C45.7472 33.8346 48.2562 32.6478 50.7619 31.4642C50.976 31.3697 51.2751 31.2155 51.5363 30.9983C51.7284 30.8409 52.0809 30.5481 52.0809 30.1483C52.0778 29.7517 51.7473 29.4715 51.5552 29.311ZM36.1963 28.1525C35.3337 28.2942 34.0557 28.5555 32.6989 29.0654C33.2088 29.1347 33.7188 29.2008 34.2256 29.2669C35.0441 28.9899 36.4701 28.5775 38.4376 28.3666C40.1501 28.1808 41.6045 28.2218 42.5425 28.2847C42.807 28.1588 43.0746 28.0297 43.339 27.9007C42.3033 27.8346 40.9812 27.7968 39.4638 27.8598C38.5415 27.8975 37.4869 27.9448 36.1963 28.1525ZM47.1354 28.3886C46.8395 28.5145 46.5468 28.6436 46.254 28.7727C46.8836 28.908 47.9571 29.1945 48.4954 29.7139C48.6465 29.8619 48.6905 29.9595 48.7063 30.0193C48.8511 30.5292 48.0011 30.9416 47.7839 31.0424C48.2939 31.1085 48.8039 31.1777 49.3138 31.2438C49.5877 31.1085 50.5289 30.6142 50.3621 29.9972C50.3401 29.9154 50.2866 29.7895 50.1103 29.6132C49.4114 28.9175 47.8752 28.5429 47.1354 28.3886ZM26.5605 32.8335C26.0726 32.7706 25.5815 32.7045 25.0936 32.6415C24.8826 32.7391 24.5458 32.9185 24.3192 33.1861C24.2279 33.2963 23.9351 33.6583 24.1523 34.0864C24.3409 34.4605 24.8151 34.6807 25.3022 34.907L25.3045 34.9081C25.6665 35.078 26.315 35.333 27.294 35.5156C27.5678 35.3897 27.8386 35.2606 28.1124 35.1316C27.8826 35.0812 27.571 34.9993 27.231 34.8797C26.9446 34.779 26.5951 34.6531 26.3087 34.4547C26.1702 34.3603 25.6507 33.9983 25.805 33.5229C25.9246 33.1578 26.3716 32.9217 26.5605 32.8335ZM31.8207 35.5912C31.5468 35.7202 31.2761 35.8524 31.0022 35.9847C32.9225 36.1389 34.5154 36.0948 35.5951 36.0256C36.3097 35.9815 37.4083 35.9091 38.7588 35.651C40.0684 35.4023 41.0537 35.0875 41.7116 34.8419C41.2237 34.7695 40.7326 34.7003 40.2447 34.6279C39.9613 34.7349 39.5206 34.8892 38.9445 35.0434C37.0274 35.5534 35.2205 35.6163 34.3359 35.6415C33.7252 35.6604 32.8595 35.6636 31.8207 35.5912ZM35.2109 33.9983C34.3453 34.3981 33.4796 34.7947 32.6139 35.1945C33.3631 35.2449 34.701 35.2858 36.2372 35.0434C37.2949 34.8766 38.085 34.6342 38.6045 34.4453C37.4743 34.2942 36.3411 34.1462 35.2109 33.9983ZM31.6098 33.482C30.7378 33.8944 29.8627 34.3068 28.9907 34.7192C28.2006 34.6058 27.6182 34.2879 27.5017 33.9101C27.4835 33.8495 27.4782 33.7912 27.4831 33.7356C27.5174 33.3502 28.0413 33.0909 28.1259 33.0502C28.128 33.0492 28.1298 33.0483 28.1313 33.0476C29.2898 33.1924 30.4514 33.3372 31.6098 33.482ZM38.3559 28.823C37.1565 28.9962 36.2751 29.2669 35.7368 29.4621C36.8732 29.6132 38.0128 29.7643 39.1523 29.9154C40.0117 29.5093 40.8711 29.1001 41.7305 28.6908C41.0128 28.6468 39.7851 28.6184 38.3559 28.823ZM42.8832 30.3827L42.8795 30.3844C44.019 30.5418 45.1555 30.7024 46.295 30.8629C46.3737 30.8251 47.0694 30.4883 46.9435 30.0004C46.8428 29.6163 46.2698 29.2889 45.4766 29.1599C44.6121 29.5654 43.7476 29.974 42.8832 30.3827ZM43.0966 29.3614L43.4177 29.2071C43.4177 29.2071 43.4775 29.1316 43.2068 29.1032C42.9392 29.0749 42.7661 29.1441 42.7661 29.1441L42.4953 29.2732C42.4481 29.2701 42.3946 29.2701 42.3442 29.2701C41.7965 29.2701 41.3495 29.3897 41.3495 29.5345C41.3495 29.6824 41.7933 29.7989 42.3442 29.7989C42.892 29.7989 43.339 29.6793 43.339 29.5345C43.339 29.4684 43.2477 29.4086 43.0966 29.3614Z" fill="#686F75"/>
<path d="M25.0936 32.6415C25.5815 32.7045 26.0726 32.7706 26.5605 32.8335C26.3716 32.9217 25.9246 33.1578 25.805 33.5229C25.6507 33.9983 26.1702 34.3603 26.3087 34.4547C26.5951 34.6531 26.9446 34.779 27.231 34.8797C27.571 34.9993 27.8826 35.0812 28.1124 35.1316C27.8386 35.2606 27.5678 35.3897 27.294 35.5156C26.315 35.333 25.6665 35.078 25.3045 34.9081L25.3022 34.907C24.8151 34.6807 24.3409 34.4605 24.1523 34.0864C23.9351 33.6583 24.2279 33.2963 24.3192 33.1861C24.5458 32.9185 24.8826 32.7391 25.0936 32.6415Z" fill="#686F75"/>
<path fill-rule="evenodd" clip-rule="evenodd" d="M51.5552 29.311C51.1712 28.993 50.7021 28.8136 50.1922 28.6216C49.5941 28.3981 49.0337 28.2501 48.5174 28.1368C47.7147 27.9574 46.5689 27.7464 44.8941 27.589C42.2701 27.3454 40.1917 27.4024 39.7109 27.4156L39.7 27.4159C39.0389 27.4379 37.1659 27.5166 35.0064 27.8629C33.7189 28.0707 33.0452 28.2564 32.7021 28.3603C31.8994 28.6027 31.2572 28.8797 30.9833 28.9993C30.6087 29.163 30.3474 29.2952 30.2719 29.333C29.6549 29.6447 27.9455 30.46 23.9256 32.3425C23.6423 32.4558 23.211 32.651 22.8584 32.95C22.6664 33.1106 22.402 33.3372 22.3548 33.6489C22.2984 34.0216 22.591 34.3039 22.7707 34.4773L22.7734 34.4799C23.2425 34.9332 23.9539 35.1882 24.5331 35.3928C25.0966 35.5912 25.5909 35.7076 25.8773 35.7737C28.1816 36.2869 30.9424 36.4222 31.4681 36.4474C34.2981 36.5765 36.4041 36.4096 36.9361 36.3656C37.9183 36.2837 39.0767 36.183 40.4776 35.8682C41.7116 35.5943 42.6308 35.2669 43.2415 35.0182C45.7472 33.8346 48.2562 32.6478 50.7619 31.4642C50.976 31.3697 51.2751 31.2155 51.5363 30.9983C51.7284 30.8409 52.0809 30.5481 52.0809 30.1483C52.0778 29.7517 51.7473 29.4715 51.5552 29.311ZM36.1963 28.1525C35.3337 28.2942 34.0557 28.5555 32.6989 29.0654C33.2088 29.1347 33.7188 29.2008 34.2256 29.2669C35.0441 28.9899 36.4701 28.5775 38.4376 28.3666C40.1501 28.1808 41.6045 28.2218 42.5425 28.2847C42.807 28.1588 43.0746 28.0297 43.339 27.9007C42.3033 27.8346 40.9812 27.7968 39.4638 27.8598C38.5415 27.8975 37.4869 27.9448 36.1963 28.1525ZM47.1354 28.3886C46.8395 28.5145 46.5468 28.6436 46.254 28.7727C46.8836 28.908 47.9571 29.1945 48.4954 29.7139C48.6465 29.8619 48.6905 29.9595 48.7063 30.0193C48.8511 30.5292 48.0011 30.9416 47.7839 31.0424C48.2939 31.1085 48.8039 31.1777 49.3138 31.2438C49.5877 31.1085 50.5289 30.6142 50.3621 29.9972C50.3401 29.9154 50.2866 29.7895 50.1103 29.6132C49.4114 28.9175 47.8752 28.5429 47.1354 28.3886ZM26.5605 32.8335C26.0726 32.7706 25.5815 32.7045 25.0936 32.6415C24.8826 32.7391 24.5458 32.9185 24.3192 33.1861C24.2279 33.2963 23.9351 33.6583 24.1523 34.0864C24.3409 34.4605 24.8151 34.6807 25.3022 34.907L25.3045 34.9081C25.6665 35.078 26.315 35.333 27.294 35.5156C27.5678 35.3897 27.8386 35.2606 28.1124 35.1316C27.8826 35.0812 27.571 34.9993 27.231 34.8797C26.9446 34.779 26.5951 34.6531 26.3087 34.4547C26.1702 34.3603 25.6507 33.9983 25.805 33.5229C25.9246 33.1578 26.3716 32.9217 26.5605 32.8335ZM31.8207 35.5912C31.5468 35.7202 31.2761 35.8524 31.0022 35.9847C32.9225 36.1389 34.5154 36.0948 35.5951 36.0256C36.3097 35.9815 37.4083 35.9091 38.7588 35.651C40.0684 35.4023 41.0537 35.0875 41.7116 34.8419C41.2237 34.7695 40.7326 34.7003 40.2447 34.6279C39.9613 34.7349 39.5206 34.8892 38.9445 35.0434C37.0274 35.5534 35.2205 35.6163 34.3359 35.6415C33.7252 35.6604 32.8595 35.6636 31.8207 35.5912ZM35.2109 33.9983C34.3453 34.3981 33.4796 34.7947 32.6139 35.1945C33.3631 35.2449 34.701 35.2858 36.2372 35.0434C37.2949 34.8766 38.085 34.6342 38.6045 34.4453C37.4743 34.2942 36.3411 34.1462 35.2109 33.9983ZM27.4831 33.7356C27.5174 33.35 28.0418 33.0906 28.1259 33.0502C28.0413 33.0909 27.5174 33.3502 27.4831 33.7356ZM38.3559 28.823C37.1565 28.9962 36.2751 29.2669 35.7368 29.4621C36.8732 29.6132 38.0128 29.7643 39.1523 29.9154C40.0117 29.5093 40.8711 29.1001 41.7305 28.6908C41.0128 28.6468 39.7851 28.6184 38.3559 28.823ZM46.9435 30.0004C46.8428 29.6163 46.2698 29.2889 45.4766 29.1599C44.6121 29.5654 43.7476 29.974 42.8832 30.3827L42.8795 30.3844C44.019 30.5418 45.1555 30.7024 46.295 30.8629C46.3737 30.8251 47.0694 30.4883 46.9435 30.0004ZM43.0966 29.3614L43.4177 29.2071C43.4177 29.2071 43.4775 29.1316 43.2068 29.1032C42.9392 29.0749 42.7661 29.1441 42.7661 29.1441L42.4953 29.2732C42.4481 29.2701 42.3946 29.2701 42.3442 29.2701C41.7965 29.2701 41.3495 29.3897 41.3495 29.5345C41.3495 29.6824 41.7933 29.7989 42.3442 29.7989C42.892 29.7989 43.339 29.6793 43.339 29.5345C43.339 29.4684 43.2477 29.4086 43.0966 29.3614ZM28.1259 33.0502C28.0413 33.0909 27.5174 33.3502 27.4831 33.7356C27.5174 33.35 28.0418 33.0906 28.1259 33.0502Z" fill="#686F75"/>
<path d="M32.6139 35.1945C33.4796 34.7947 34.3453 34.3981 35.2109 33.9983C36.3411 34.1462 37.4743 34.2942 38.6045 34.4453C38.085 34.6342 37.2949 34.8766 36.2372 35.0434C34.701 35.2858 33.3631 35.2449 32.6139 35.1945Z" fill="#686F75"/>
<path d="M31.0022 35.9847C31.2761 35.8524 31.5468 35.7202 31.8207 35.5912C32.8595 35.6636 33.7252 35.6604 34.3359 35.6415C35.2205 35.6163 37.0274 35.5534 38.9445 35.0434C39.5206 34.8892 39.9613 34.7349 40.2447 34.6279C40.7326 34.7003 41.2237 34.7695 41.7116 34.8419C41.0537 35.0875 40.0684 35.4023 38.7588 35.651C37.4083 35.9091 36.3097 35.9815 35.5951 36.0256C34.5154 36.0948 32.9225 36.1389 31.0022 35.9847Z" fill="#686F75"/>
<path d="M32.6989 29.0654C34.0557 28.5555 35.3337 28.2942 36.1963 28.1525C37.4869 27.9448 38.5415 27.8975 39.4638 27.8598C40.9812 27.7968 42.3033 27.8346 43.339 27.9007C43.0746 28.0297 42.807 28.1588 42.5425 28.2847C41.6045 28.2218 40.1501 28.1808 38.4376 28.3666C36.4701 28.5775 35.0441 28.9899 34.2256 29.2669C33.7188 29.2008 33.2088 29.1347 32.6989 29.0654Z" fill="#686F75"/>
<path d="M35.7368 29.4621C36.2751 29.2669 37.1565 28.9962 38.3559 28.823C39.7851 28.6184 41.0128 28.6468 41.7305 28.6908C40.8711 29.1001 40.0117 29.5093 39.1523 29.9154C38.0128 29.7643 36.8732 29.6132 35.7368 29.4621Z" fill="#686F75"/>
<path d="M43.4177 29.2071L43.0966 29.3614C43.2477 29.4086 43.339 29.4684 43.339 29.5345C43.339 29.6793 42.892 29.7989 42.3442 29.7989C41.7933 29.7989 41.3495 29.6824 41.3495 29.5345C41.3495 29.3897 41.7965 29.2701 42.3442 29.2701C42.3946 29.2701 42.4481 29.2701 42.4953 29.2732L42.7661 29.1441C42.7661 29.1441 42.9392 29.0749 43.2068 29.1032C43.4775 29.1316 43.4177 29.2071 43.4177 29.2071Z" fill="#686F75"/>
<path d="M45.4766 29.1599C46.2698 29.2889 46.8428 29.6163 46.9435 30.0004C47.0694 30.4883 46.3737 30.8251 46.295 30.8629C45.1555 30.7024 44.019 30.5418 42.8795 30.3844L42.8832 30.3827C43.7476 29.974 44.6121 29.5654 45.4766 29.1599Z" fill="#686F75"/>
<path d="M46.254 28.7727C46.5468 28.6436 46.8395 28.5145 47.1354 28.3886C47.8752 28.5429 49.4114 28.9175 50.1103 29.6132C50.2866 29.7895 50.3401 29.9154 50.3621 29.9972C50.5289 30.6142 49.5877 31.1085 49.3138 31.2438C48.8039 31.1777 48.2939 31.1085 47.7839 31.0424C48.0011 30.9416 48.8511 30.5292 48.7063 30.0193C48.6905 29.9595 48.6465 29.8619 48.4954 29.7139C47.9571 29.1945 46.8836 28.908 46.254 28.7727Z" fill="#686F75"/>
<path fill-rule="evenodd" clip-rule="evenodd" d="M51.5552 29.311C51.1712 28.993 50.7021 28.8136 50.1922 28.6216C49.5941 28.3981 49.0337 28.2501 48.5174 28.1368C47.7147 27.9574 46.5689 27.7464 44.8941 27.589C42.2701 27.3454 40.1917 27.4024 39.7109 27.4156L39.7 27.4159C39.0389 27.4379 37.1659 27.5166 35.0064 27.8629C33.7189 28.0707 33.0452 28.2564 32.7021 28.3603C31.8994 28.6027 31.2572 28.8797 30.9833 28.9993C30.6087 29.163 30.3474 29.2952 30.2719 29.333C29.6549 29.6447 27.9455 30.46 23.9256 32.3425C23.6423 32.4558 23.211 32.651 22.8584 32.95C22.6664 33.1106 22.402 33.3372 22.3548 33.6489C22.2984 34.0216 22.591 34.3039 22.7707 34.4773L22.7734 34.4799C23.2425 34.9332 23.9539 35.1882 24.5331 35.3928C25.0966 35.5912 25.5909 35.7076 25.8773 35.7737C28.1816 36.2869 30.9424 36.4222 31.4681 36.4474C34.2981 36.5765 36.4041 36.4096 36.9361 36.3656C37.9183 36.2837 39.0767 36.183 40.4776 35.8682C41.7116 35.5943 42.6308 35.2669 43.2415 35.0182C45.7472 33.8346 48.2562 32.6478 50.7619 31.4642C50.976 31.3697 51.2751 31.2155 51.5363 30.9983C51.7284 30.8409 52.0809 30.5481 52.0809 30.1483C52.0778 29.7517 51.7473 29.4715 51.5552 29.311ZM36.1963 28.1525C35.3337 28.2942 34.0557 28.5555 32.6989 29.0654C33.2088 29.1347 33.7188 29.2008 34.2256 29.2669C35.0441 28.9899 36.4701 28.5775 38.4376 28.3666C40.1501 28.1808 41.6045 28.2218 42.5425 28.2847C42.807 28.1588 43.0746 28.0297 43.339 27.9007C42.3033 27.8346 40.9812 27.7968 39.4638 27.8598C38.5415 27.8975 37.4869 27.9448 36.1963 28.1525ZM47.1354 28.3886C46.8395 28.5145 46.5468 28.6436 46.254 28.7727C46.8836 28.908 47.9571 29.1945 48.4954 29.7139C48.6465 29.8619 48.6905 29.9595 48.7063 30.0193C48.8511 30.5292 48.0011 30.9416 47.7839 31.0424C48.2939 31.1085 48.8039 31.1777 49.3138 31.2438C49.5877 31.1085 50.5289 30.6142 50.3621 29.9972C50.3401 29.9154 50.2866 29.7895 50.1103 29.6132C49.4114 28.9175 47.8752 28.5429 47.1354 28.3886ZM26.5605 32.8335C26.0726 32.7706 25.5815 32.7045 25.0936 32.6415C24.8826 32.7391 24.5458 32.9185 24.3192 33.1861C24.2279 33.2963 23.9351 33.6583 24.1523 34.0864C24.3409 34.4605 24.8151 34.6807 25.3022 34.907L25.3045 34.9081C25.6665 35.078 26.315 35.333 27.294 35.5156C27.5678 35.3897 27.8386 35.2606 28.1124 35.1316C27.8826 35.0812 27.571 34.9993 27.231 34.8797C26.9446 34.779 26.5951 34.6531 26.3087 34.4547C26.1702 34.3603 25.6507 33.9983 25.805 33.5229C25.9246 33.1578 26.3716 32.9217 26.5605 32.8335ZM31.8207 35.5912C31.5468 35.7202 31.2761 35.8524 31.0022 35.9847C32.9225 36.1389 34.5154 36.0948 35.5951 36.0256C36.3097 35.9815 37.4083 35.9091 38.7588 35.651C40.0684 35.4023 41.0537 35.0875 41.7116 34.8419C41.2237 34.7695 40.7326 34.7003 40.2447 34.6279C39.9613 34.7349 39.5206 34.8892 38.9445 35.0434C37.0274 35.5534 35.2205 35.6163 34.3359 35.6415C33.7252 35.6604 32.8595 35.6636 31.8207 35.5912ZM35.2109 33.9983C34.3453 34.3981 33.4796 34.7947 32.6139 35.1945C33.3631 35.2449 34.701 35.2858 36.2372 35.0434C37.2949 34.8766 38.085 34.6342 38.6045 34.4453C37.4743 34.2942 36.3411 34.1462 35.2109 33.9983ZM31.6098 33.482C30.7378 33.8944 29.8627 34.3068 28.9907 34.7192C28.2006 34.6058 27.6182 34.2879 27.5017 33.9101C27.4835 33.8495 27.4782 33.7912 27.4831 33.7356C27.5182 33.3408 28.0671 33.0783 28.1313 33.0476C29.2898 33.1924 30.4514 33.3372 31.6098 33.482ZM38.3559 28.823C37.1565 28.9962 36.2751 29.2669 35.7368 29.4621C36.8732 29.6132 38.0128 29.7643 39.1523 29.9154C40.0117 29.5093 40.8711 29.1001 41.7305 28.6908C41.0128 28.6468 39.7851 28.6184 38.3559 28.823ZM42.8832 30.3827L42.8795 30.3844C44.019 30.5418 45.1555 30.7024 46.295 30.8629C46.3737 30.8251 47.0694 30.4883 46.9435 30.0004C46.8428 29.6163 46.2698 29.2889 45.4766 29.1599C44.6121 29.5654 43.7476 29.974 42.8832 30.3827ZM43.0966 29.3614L43.4177 29.2071C43.4177 29.2071 43.4775 29.1316 43.2068 29.1032C42.9392 29.0749 42.7661 29.1441 42.7661 29.1441L42.4953 29.2732C42.4481 29.2701 42.3946 29.2701 42.3442 29.2701C41.7965 29.2701 41.3495 29.3897 41.3495 29.5345C41.3495 29.6824 41.7933 29.7989 42.3442 29.7989C42.892 29.7989 43.339 29.6793 43.339 29.5345C43.339 29.4684 43.2477 29.4086 43.0966 29.3614Z" fill="#8E959B"/>
<path d="M32.1321 31.6689C32.1289 31.6594 32.1258 31.65 32.1321 31.6374C32.1509 31.5933 32.2485 31.5713 32.2611 31.5713C32.7081 31.4579 33.067 31.3792 33.2748 31.3415C33.3598 31.3257 33.4983 31.3037 33.621 31.332C33.6368 31.3352 33.6777 31.3478 33.7123 31.3667C33.8131 31.4296 33.684 31.502 33.5581 31.7476C33.5423 31.779 33.5235 31.8168 33.4542 31.8357C33.3724 31.8546 33.2716 31.8326 33.2338 31.8231C32.8655 31.7727 32.5004 31.7224 32.1321 31.6689Z" fill="#F3F4F6" stroke="#303336" stroke-miterlimit="10"/>
<path d="M33.7123 31.3655C33.8131 31.4284 33.684 31.5008 33.5581 31.7464C33.5423 31.7778 33.5235 31.8156 33.4542 31.8345C33.3724 31.8534 33.2716 31.8314 33.2338 31.8219C32.8655 31.7715 32.5004 31.7212 32.1321 31.6708C32.1289 31.6614 32.1258 31.6519 32.1321 31.6393C32.1509 31.5953 32.2485 31.5732 32.2611 31.5732C32.7081 31.4599 33.067 31.3812 33.2748 31.3434C33.3598 31.3277 33.4983 31.3056 33.621 31.334C33.6368 31.334 33.6777 31.3434 33.7123 31.3655Z" fill="#F3F4F6" stroke="#303336" stroke-miterlimit="10"/>
<path d="M25.8682 32.289C27.9143 31.3257 29.9605 30.3656 32.0067 29.4023C37.5251 30.1327 43.0403 30.8661 48.5587 31.5996L42.4611 34.4863C36.9355 33.7567 31.4099 33.0239 25.8844 32.2912L25.8682 32.289Z" fill="#686F75"/>
<path d="M35.5073 30.6208C35.479 30.6051 35.3877 30.561 35.1075 30.5453C34.7581 30.5264 34.4464 30.5736 34.2166 30.6271C32.3971 31.0363 30.5776 31.4487 28.7581 31.858C28.6951 31.8643 28.5881 31.88 28.4842 31.9178C28.4118 31.9461 28.2796 31.9933 28.2859 32.05C28.2953 32.1444 28.7014 32.22 29.0193 32.2263C29.1641 32.2294 29.2775 32.22 29.3751 32.2105C29.6332 32.1853 29.8315 32.1444 29.9606 32.1098C30.0519 32.0815 30.2313 32.0374 30.4737 32.0279C30.6059 32.0248 30.7161 32.0342 30.7979 32.0437C31.5314 32.135 32.2649 32.2263 32.9984 32.3176C33.1369 32.3805 33.1684 32.4309 33.1684 32.4687C33.1652 32.5379 33.0582 32.5662 33.055 32.6449C33.055 32.7142 33.1337 32.7646 33.1558 32.7772C33.3572 32.9031 33.8452 32.9062 34.182 32.8275C34.3646 32.7866 34.481 32.7236 34.5503 32.6796C34.8997 32.0594 35.2492 31.4361 35.5986 30.816C35.608 30.7939 35.6363 30.6964 35.5073 30.6208ZM33.5587 31.7478C33.543 31.7793 33.5241 31.817 33.4548 31.8359C33.373 31.8548 33.2722 31.8328 33.2345 31.8233C32.8661 31.773 32.501 31.7226 32.1327 31.6722C32.1295 31.6628 32.1264 31.6533 32.1327 31.6407C32.1516 31.5967 32.2491 31.5746 32.2617 31.5746C32.7087 31.4613 33.0676 31.3826 33.2754 31.3448C33.3604 31.3291 33.4989 31.3071 33.6217 31.3354C33.6374 31.3385 33.6783 31.3511 33.7129 31.37C33.8137 31.4298 33.6846 31.5022 33.5587 31.7478Z" fill="#8E959B"/>
<path d="M43.6768 31.6521C43.6484 31.6363 43.5572 31.5922 43.2801 31.5765C42.9307 31.5576 42.6191 31.6048 42.3893 31.6584C40.5697 32.0676 38.7502 32.48 36.9307 32.8892C36.8677 32.8955 36.7638 32.9112 36.66 32.949C36.5876 32.9773 36.4553 33.0246 36.4616 33.0812C36.4711 33.1757 36.8803 33.2512 37.1951 33.2575C37.3368 33.2607 37.4501 33.2512 37.5508 33.2418C37.809 33.2197 38.0073 33.1757 38.1395 33.141C38.2308 33.1127 38.4102 33.0686 38.6526 33.0592C38.7848 33.0561 38.895 33.0655 38.9769 33.0749C39.7103 33.1662 40.4438 33.2575 41.1773 33.3488C41.3158 33.4118 41.3473 33.4621 41.3441 33.4999C41.3441 33.5692 41.234 33.5975 41.234 33.6762C41.234 33.7455 41.3126 33.7958 41.3347 33.8084C41.533 33.9343 42.0241 33.9375 42.3609 33.8588C42.5435 33.8147 42.66 33.7549 42.7292 33.7108C43.0787 33.0907 43.4281 32.4674 43.7775 31.8472C43.7775 31.8252 43.8058 31.7245 43.6768 31.6521ZM41.7282 32.7759C41.7124 32.8074 41.6936 32.8483 41.6243 32.864C41.5425 32.8829 41.4417 32.8609 41.4039 32.8514C41.0356 32.8011 40.6705 32.7507 40.3053 32.7003C40.3022 32.6909 40.299 32.6814 40.3053 32.6657C40.3242 32.6216 40.4218 32.5996 40.4344 32.5996C40.8814 32.4863 41.2402 32.4076 41.4449 32.3698C41.5299 32.3541 41.6684 32.3289 41.7911 32.3604C41.8069 32.3635 41.851 32.3729 41.8824 32.395C41.9832 32.4611 41.8541 32.5335 41.7282 32.7759Z" fill="#8E959B"/>
<path d="M39.748 31.6864C39.6913 31.7336 39.5906 31.7462 39.5748 31.7462C39.0586 31.8154 38.5423 31.8816 38.026 31.9508C37.6735 32.1177 37.3209 32.2813 36.9652 32.4482C36.8865 32.4671 36.7605 32.4891 36.6031 32.486C36.5024 32.4828 36.3576 32.4797 36.2569 32.4293C36.1971 32.3978 36.1782 32.36 36.1719 32.338C36.515 32.168 36.8581 31.9949 37.2013 31.8249C37.1603 31.7053 37.1226 31.5856 37.0816 31.4629C37.069 31.4471 37.0376 31.4031 37.0753 31.359C37.1163 31.3086 37.217 31.2897 37.2863 31.2771C37.3114 31.2709 37.6609 31.2079 37.8749 31.3086C37.9473 31.3433 37.9788 31.381 37.9945 31.4125C38.0229 31.5038 38.0512 31.5919 38.0795 31.6832C38.3156 31.6486 38.5549 31.614 38.7941 31.5793C38.9138 31.5636 39.0302 31.5479 39.1467 31.529C39.2852 31.5038 39.3985 31.5069 39.4615 31.5101C39.5685 31.5164 39.6944 31.5227 39.7511 31.5699C39.7983 31.6077 39.7889 31.6549 39.748 31.6864Z" fill="#8E959B"/>
</g>
</svg>
