<svg width="77" height="77" viewBox="0 0 77 77" fill="none" xmlns="http://www.w3.org/2000/svg">
<mask id="mask0_356_9420" style="mask-type:alpha" maskUnits="userSpaceOnUse" x="0" y="0" width="77" height="77">
<circle cx="38.1746" cy="38.9002" r="37.9998" fill="#C4C4C4"/>
</mask>
<g mask="url(#mask0_356_9420)">
<rect x="-4.38428" y="26.5176" width="84.2503" height="51.3726" fill="#303336"/>
<rect x="0.308105" y="-24.8555" width="75.8667" height="51.3726" fill="#F3F4F6"/>
<path d="M44.4614 55.7045C60.7929 55.7045 74.0323 53.2885 74.0323 50.3083C74.0323 47.3281 60.7929 44.9121 44.4614 44.9121C28.1299 44.9121 14.8906 47.3281 14.8906 50.3083C14.8906 53.2885 28.1299 55.7045 44.4614 55.7045Z" fill="#74C2FF"/>
<path d="M60.65 57.5902C62.5963 57.5902 64.1741 57.3029 64.1741 56.9484C64.1741 56.594 62.5963 56.3066 60.65 56.3066C58.7037 56.3066 57.126 56.594 57.126 56.9484C57.126 57.3029 58.7037 57.5902 60.65 57.5902Z" fill="#74C2FF"/>
<path d="M45.4601 62.8959C53.0166 62.8959 59.1423 61.7772 59.1423 60.3972C59.1423 59.0172 53.0166 57.8984 45.4601 57.8984C37.9036 57.8984 31.7778 59.0172 31.7778 60.3972C31.7778 61.7772 37.9036 62.8959 45.4601 62.8959Z" fill="#74C2FF"/>
<path d="M36.5779 59.6345C45.9758 59.6345 53.5944 58.2438 53.5944 56.5282C53.5944 54.8126 45.9758 53.4219 36.5779 53.4219C27.18 53.4219 19.5615 54.8126 19.5615 56.5282C19.5615 58.2438 27.18 59.6345 36.5779 59.6345Z" fill="#74C2FF"/>
<path d="M-7.58105 43.4102H76.1747V48.9165H58.9671L55.5519 46.8001L50.6404 47.1904L44.5905 45.8894L43.2569 46.2797L41.9558 45.5966L35.3855 47.8409L34.5073 46.9627L29.0754 48.3939L28.2622 47.8409L25.0072 48.9165H-7.58105V43.4102Z" fill="#686F75"/>
<path d="M-5.17627 26.5176L-5.17627 43.4125H25.0181" fill="#CED3D8"/>
<path d="M-5.17627 26.5176L-5.17627 43.4125H25.0181H76.1711V26.5176L-5.17627 26.5176Z" fill="#CED3D8"/>
<path d="M34.4245 45.8965V47.48L29.0435 48.9155V47.3319L34.4245 45.8965Z" fill="#303336"/>
<path d="M41.7919 44.7168V46.3003L35.3477 48.4497V46.8662L41.7919 44.7168Z" fill="#303336"/>
<path d="M50.7121 46.3855V47.9691L44.4614 46.4994V44.9121L50.7121 46.3855Z" fill="#8E959B"/>
<path d="M55.5618 45.8965V47.48L50.7124 47.9661V46.3826L55.5618 45.8965Z" fill="#303336"/>
<path d="M43.3451 45.6054V47.1889L41.792 46.3003V44.7168L43.3451 45.6054Z" fill="#8E959B"/>
<path d="M44.4612 44.9121V46.4994L43.3447 47.1906V45.6071L44.4612 44.9121Z" fill="#303336"/>
<path d="M57.2096 46.7699V48.3534L55.5615 47.48V45.8965L57.2096 46.7699Z" fill="#8E959B"/>
<path d="M35.3476 46.8648V48.4484L34.4248 47.48V45.8965L35.3476 46.8648Z" fill="#8E959B"/>
<path d="M29.0437 47.3338V48.9174L28.269 48.1617V46.5781L29.0437 47.3338Z" fill="#8E959B"/>
<path d="M28.2692 46.5781V48.1617L25.0186 48.9174V47.3338L28.2692 46.5781Z" fill="#303336"/>
<path d="M59.0019 47.3335V48.9171L57.2095 48.355V46.7715L59.0019 47.3335Z" fill="#303336"/>
</g>
</svg>
