<svg width="77" height="77" viewBox="0 0 77 77" fill="none" xmlns="http://www.w3.org/2000/svg">
<mask id="mask0_356_9385" style="mask-type:alpha" maskUnits="userSpaceOnUse" x="0" y="0" width="77" height="77">
<circle cx="38.7757" cy="38.5682" r="37.9998" fill="#C4C4C4"/>
</mask>
<g mask="url(#mask0_356_9385)">
<rect x="-3.34912" y="-38.8086" width="84.2503" height="64.9817" fill="#F3F4F6"/>
<rect x="-3.34912" y="26.1729" width="84.2503" height="51.3726" fill="#303336"/>
<path d="M41.813 53.476C58.1445 53.476 71.3838 51.06 71.3838 48.0798C71.3838 45.0995 58.1445 42.6836 41.813 42.6836C25.4815 42.6836 12.2422 45.0995 12.2422 48.0798C12.2422 51.06 25.4815 53.476 41.813 53.476Z" fill="#74C2FF"/>
<path d="M57.9982 55.3597C59.9444 55.3597 61.5222 55.0724 61.5222 54.7179C61.5222 54.3635 59.9444 54.0762 57.9982 54.0762C56.0519 54.0762 54.4741 54.3635 54.4741 54.7179C54.4741 55.0724 56.0519 55.3597 57.9982 55.3597Z" fill="#74C2FF"/>
<path d="M42.8082 60.6654C50.3647 60.6654 56.4905 59.5467 56.4905 58.1667C56.4905 56.7867 50.3647 55.668 42.8082 55.668C35.2517 55.668 29.126 56.7867 29.126 58.1667C29.126 59.5467 35.2517 60.6654 42.8082 60.6654Z" fill="#74C2FF"/>
<path d="M33.9261 57.408C43.324 57.408 50.9425 56.0172 50.9425 54.3016C50.9425 52.5861 43.324 51.1953 33.9261 51.1953C24.5282 51.1953 16.9097 52.5861 16.9097 54.3016C16.9097 56.0172 24.5282 57.408 33.9261 57.408Z" fill="#74C2FF"/>
<path d="M-9.63818 35.4707L-7.35971 34.3809H2.939L0.595974 35.4707H-9.63818Z" fill="#CED3D8"/>
<path d="M5.9541 35.4707L8.23258 34.3809H18.5313L16.1883 35.4707H5.9541Z" fill="#CED3D8"/>
<path d="M21.5464 35.4707L23.8249 34.3809H34.1236L31.7805 35.4707H21.5464Z" fill="#CED3D8"/>
<path d="M37.1387 35.4707L39.4171 34.3809H49.7159L47.3728 35.4707H37.1387Z" fill="#CED3D8"/>
<path d="M52.731 35.4707L55.0094 34.3809H65.3081L62.9651 35.4707H52.731Z" fill="#CED3D8"/>
<path d="M68.3237 35.4707L70.6022 34.3809H80.9009L78.5579 35.4707H68.3237Z" fill="#CED3D8"/>
<path d="M7.89087 43.043V44.4898L2.93896 44.2658L7.89087 43.043Z" fill="#686F75"/>
<path d="M13.1425 43.043V44.7252L7.89062 44.4898V43.043H13.1425Z" fill="#CED3D8"/>
<path d="M21.6682 41.8347V43.5853L16.0859 42.3853V40.6309L21.6682 41.8347Z" fill="#CED3D8"/>
<path d="M33.8732 41.0676V42.8182L27.2466 42.3853V40.6309L33.8732 41.0676Z" fill="#CED3D8"/>
<path d="M44.0656 40.1968V41.9475L37.1846 40.6373V38.8867L44.0656 40.1968Z" fill="#CED3D8"/>
<path d="M56.3654 39.6348L53.9236 40.9981V41.5829L44.0654 41.9474V40.1968L56.3654 39.6348Z" fill="#686F75"/>
<path d="M66.6524 41.8354V43.5861L53.9233 42.7506V41L66.6524 41.8354Z" fill="#CED3D8"/>
<path d="M69.0908 44.0821L67.3933 44.0707L66.6528 43.5846V41.834L69.0908 44.0821Z" fill="#686F75"/>
<path d="M67.3931 44.0716L54.9678 43.9766L50.2627 46.6501L38.4033 45.4387L37.359 47.5349L24.5957 46.3159L13.1426 47.0564L15.0945 44.8121L13.2223 44.7285L16.0856 42.3855L21.6679 43.5855L27.2463 42.3855L33.8729 42.8184L37.1843 40.6387L44.0653 41.9488L53.9235 41.5842V42.7501L66.6526 43.5855L67.3931 44.0716Z" fill="#3BA8FF"/>
<path d="M16.0856 40.6309V42.3853L13.2223 44.7283L13.1426 44.7245V43.0422L16.0856 40.6309Z" fill="#686F75"/>
<path d="M13.2234 44.7285L13.1426 44.7939" stroke="#303336" stroke-width="2" stroke-miterlimit="10"/>
<path d="M27.2464 40.6309V42.3853L21.668 43.5853V41.8347L27.2464 40.6309Z" fill="#686F75"/>
<path d="M37.1844 38.8867V40.6373L33.873 42.8171V41.0665L37.1844 38.8867Z" fill="#686F75"/>
<path d="M13.1426 44.7933V44.7246" stroke="#303336" stroke-width="2" stroke-miterlimit="10"/>
</g>
</svg>
