<svg width="225" height="64" viewBox="0 0 225 64" fill="none" xmlns="http://www.w3.org/2000/svg">
<path d="M13.1485 40.2289C9.52684 40.2289 5.90727 40.2289 2.28566 40.2289C2.18794 40.2064 1.98233 40.1451 1.79301 39.9672C1.55889 39.7484 1.48968 39.4908 1.46729 39.3927C1.49579 38.5258 1.55482 37.4299 1.67493 36.1685C1.74618 35.41 1.85408 34.3121 2.07801 32.9709C2.45259 30.7342 2.94728 29.0679 3.26079 28.0252C3.65572 26.7126 4.19723 25.124 4.95046 23.3535C5.02579 23.239 5.16015 23.0652 5.38001 22.9221C5.88895 22.5909 6.43453 22.7013 6.54853 22.7258C7.23255 22.8812 7.55216 23.4455 7.60102 23.5354C9.44949 29.1006 11.3 34.6658 13.1485 40.2289Z" fill="#0284EB"/>
<path d="M13.8505 40.2545C14.6302 40.2545 15.4099 40.2545 16.1917 40.2545C16.3057 40.2177 16.5072 40.1339 16.6721 39.9417C17.0467 39.5042 16.8838 38.9133 16.8675 38.8581C15.8802 35.8608 14.8928 32.8636 13.9055 29.8663C13.8546 29.7437 13.6246 29.2244 13.0342 28.9524C12.9039 28.8932 12.3339 28.6478 11.7354 28.8993C11.143 29.1487 10.7542 29.7825 10.748 30.5042C11.7802 33.755 12.8143 37.0037 13.8505 40.2545Z" fill="#0284EB"/>
<path fill-rule="evenodd" clip-rule="evenodd" d="M52.3365 60.1175C50.1074 59.4332 48.2764 59.3151 46.9163 59.3623L46.9158 59.3623C45.8906 59.3973 45.0906 59.5272 43.9787 59.7537C43.697 59.811 43.3947 59.8748 43.0643 59.9444C42.0878 60.1502 40.8666 60.4076 39.2124 60.7045C38.6077 60.813 38.0272 60.9122 37.4741 61.0027C40.4948 61.6792 44.3854 62.042 48.7038 61.1503C50.026 60.8776 51.2389 60.5185 52.3365 60.1175ZM46.8465 57.3189C48.9238 57.2469 51.8804 57.5196 55.505 59.1292C55.8688 59.2907 56.1055 59.6503 56.1112 60.0497C56.1168 60.4491 55.8903 60.8152 55.5312 60.987C53.7856 61.8222 51.635 62.6329 49.1138 63.1529M46.846 57.319C45.6586 57.3596 44.7334 57.5139 43.5741 57.7499C43.276 57.8107 42.9632 57.8766 42.6257 57.9477C41.653 58.1527 40.4752 58.4009 38.8543 58.6919C36.245 59.16 34.0945 59.4517 32.6739 59.6237C32.2102 59.6799 31.844 60.0458 31.7858 60.5113C31.7276 60.9768 31.9924 61.4222 32.4279 61.5918C35.5404 62.8035 41.7335 64.6768 49.1138 63.1529" fill="#0284EB"/>
<path d="M43.4976 0.724609C30.6475 0.724609 19.6087 8.49551 14.7962 19.6046C14.5943 20.0705 14.8068 20.6126 15.2707 20.8153C15.7347 21.018 16.2744 20.8046 16.4762 20.3387C21.0078 9.87817 31.4015 2.56467 43.4976 2.56467C59.7595 2.56467 72.9407 15.7829 72.9407 32.0854C72.9407 35.3628 72.4077 38.5147 71.4252 41.4595H0.587891V43.0951H70.8251C70.7379 43.3124 70.6483 43.5284 70.5562 43.7431C70.3561 44.2098 70.5705 44.7511 71.0352 44.9521C71.4999 45.1531 72.0388 44.9377 72.239 44.471C72.4334 44.0178 72.6174 43.559 72.7908 43.0951H78.5879V41.4595H73.3512C74.2748 38.4984 74.7729 35.3493 74.7729 32.0854C74.7729 14.7638 60.7686 0.724609 43.4976 0.724609Z" fill="#0284EB"/>
<path d="M39.8515 37.5254L32.5757 16.9576C32.2357 15.9947 31.2545 15.3895 30.2142 15.5571C29.4365 15.6818 28.8034 16.2543 28.5327 16.9944L21.0187 37.5009C20.6054 38.6253 21.1917 39.8745 22.3236 40.2712C23.4351 40.6596 24.6485 40.0279 25.0556 38.9177L25.7274 37.5131C26.1284 36.4214 27.0038 35.7037 28.1622 35.7037H33.4185C34.1676 35.7037 34.8374 36.1781 35.0878 36.8875L35.8227 38.9627C36.1342 39.8418 36.9566 40.3918 37.8361 40.3918C38.0743 40.3918 38.3145 40.3509 38.5527 40.2671C39.6662 39.8704 40.2464 38.6417 39.8515 37.5254ZM28.4126 29.7583L29.8498 25.8369C30.0778 25.2113 30.9613 25.2174 31.1832 25.8451L32.6673 30.0363C32.7732 30.3369 32.5513 30.6517 32.2337 30.6517H29.0355C28.5734 30.6517 28.2538 30.1917 28.4126 29.7583Z" fill="#0284EB"/>
<path d="M65.6322 37.5254L58.3564 16.9576C58.0165 15.9947 57.0352 15.3895 55.995 15.5571C55.2173 15.6818 54.5842 16.2543 54.3134 16.9944L46.7995 37.5029C46.3862 38.6274 46.9725 39.8766 48.1044 40.2732C49.2159 40.6617 50.4292 40.0299 50.8364 38.9197L51.5082 37.5152C51.9092 36.4234 52.7846 35.7058 53.9429 35.7058H59.1992C59.9484 35.7058 60.6182 36.1801 60.8686 36.8895L61.6035 38.9647C61.9149 39.8439 62.7374 40.3938 63.6168 40.3938C63.855 40.3938 64.0952 40.3529 64.3334 40.2691C65.447 39.8704 66.0272 38.6417 65.6322 37.5254ZM54.1933 29.7583L55.6306 25.8369C55.8586 25.2113 56.7421 25.2174 56.964 25.8451L58.4481 30.0363C58.5539 30.3369 58.332 30.6517 58.0144 30.6517H54.8163C54.3541 30.6517 54.0345 30.1917 54.1933 29.7583Z" fill="#0284EB"/>
<path d="M46.9907 19.7732C46.382 19.3663 45.5616 19.534 45.1565 20.1432L43.3325 22.9013L41.5451 20.1535C41.1461 19.5381 40.3256 19.3663 39.7129 19.767C39.1001 20.1678 38.9291 20.9917 39.3281 21.6071L41.997 25.7125V31.6947C41.997 32.4287 42.5894 33.0236 43.3202 33.0236C44.0511 33.0236 44.6435 32.4287 44.6435 31.6947V25.7186L47.3592 21.6153C47.7643 21.004 47.5994 20.178 46.9907 19.7732Z" fill="#0284EB"/>
<path d="M69.2949 49.4078C69.1203 49.4078 68.9429 49.3671 68.7767 49.2788C65.7579 47.6906 62.6148 46.7198 59.4326 46.3915C55.8998 46.0282 53.8686 46.602 51.5162 47.2655C49.4054 47.8618 47.0125 48.5366 43.2855 48.5464C43.259 48.5464 43.231 48.5464 43.2045 48.5464C39.6032 48.5464 37.2899 47.9081 35.2476 47.3441C32.9398 46.7072 30.9464 46.1572 27.408 46.4869C24.1783 46.7885 20.9821 47.7145 17.9089 49.2409C17.3557 49.5159 16.6852 49.2872 16.4114 48.7316C16.1376 48.176 16.3653 47.5026 16.9185 47.2277C20.239 45.5834 23.6978 44.5817 27.2013 44.2534C31.1448 43.8859 33.426 44.5144 35.8399 45.1808C37.8389 45.7321 39.9049 46.3031 43.2031 46.3031C43.2282 46.3031 43.2534 46.3031 43.2799 46.3031C46.7024 46.2933 48.8425 45.69 50.9113 45.1064C53.3769 44.4106 55.7056 43.7526 59.6603 44.1608C63.1261 44.5172 66.543 45.5708 69.8132 47.2922C70.3594 47.5798 70.5703 48.2574 70.2839 48.8074C70.0856 49.189 69.6972 49.4078 69.2949 49.4078Z" fill="#0284EB"/>
<path d="M29.4672 54.5344C26.5504 54.5344 23.5805 54.2679 20.5939 53.7362C19.9862 53.6281 19.5811 53.0459 19.6887 52.4356C19.7963 51.8254 20.376 51.4185 20.9836 51.5265C25.1311 52.2645 29.2423 52.4693 33.2012 52.134C35.1317 51.9713 39.6033 51.0678 47.7222 49.4291L48.098 49.3534C53.8003 48.2016 56.4028 47.6755 60.0781 48.3138C62.5479 48.7417 64.9534 49.6087 67.2248 50.8868C67.7626 51.1898 67.9554 51.8745 67.6536 52.4146C67.3519 52.9547 66.6702 53.1469 66.1324 52.8453C64.0817 51.6907 61.9178 50.9106 59.6981 50.5248C56.4335 49.9581 54.123 50.4252 48.5381 51.5532L48.1623 51.629C39.3449 53.4079 35.3636 54.2019 33.3884 54.3689C32.0962 54.4797 30.7873 54.5344 29.4672 54.5344Z" fill="#0284EB"/>
<path d="M27.3034 58.9592C26.7293 58.9592 26.2404 58.5173 26.1915 57.9309C26.1398 57.3136 26.5966 56.7706 27.2112 56.7187C30.2635 56.4606 33.3605 56.0327 36.4156 55.4449C39.338 54.8837 41.4278 54.3323 43.2717 53.8455C45.8742 53.1581 47.9305 52.6165 50.7565 52.5127C54.6651 52.371 58.7092 53.1356 62.7729 54.7911C63.3442 55.024 63.6208 55.6791 63.3889 56.2529C63.157 56.8267 62.5047 57.1045 61.9333 56.8716C58.1644 55.3354 54.4318 54.6241 50.8389 54.756C48.2602 54.8514 46.4064 55.3396 43.8403 56.0172C41.9628 56.5125 39.8339 57.0751 36.8361 57.6503C33.7042 58.2521 30.529 58.6912 27.3984 58.9564C27.3663 58.9578 27.3356 58.9592 27.3034 58.9592Z" fill="#0284EB"/>
<path d="M92.7946 40.2063C92.7491 39.748 92.554 39.3919 92.2093 39.1381C91.8646 38.8844 91.3968 38.7575 90.8059 38.7575C90.4044 38.7575 90.0654 38.8143 89.7889 38.9279C89.5124 39.0378 89.3002 39.1912 89.1525 39.3881C89.0086 39.5851 88.9366 39.8086 88.9366 40.0586C88.929 40.2669 88.9726 40.4487 89.0673 40.604C89.1658 40.7594 89.3002 40.8938 89.4707 41.0075C89.6412 41.1173 89.8381 41.2139 90.0616 41.2972C90.2851 41.3768 90.5237 41.445 90.7775 41.5018L91.823 41.7518C92.3306 41.8654 92.7965 42.0169 93.2207 42.2063C93.6449 42.3957 94.0124 42.6287 94.323 42.9052C94.6336 43.1817 94.8741 43.5075 95.0446 43.8825C95.2188 44.2575 95.3078 44.6874 95.3116 45.1722C95.3078 45.8844 95.126 46.5018 94.7662 47.0245C94.4101 47.5434 93.8949 47.9469 93.2207 48.2347C92.5502 48.5188 91.7415 48.6609 90.7946 48.6609C89.8552 48.6609 89.037 48.5169 88.34 48.229C87.6468 47.9412 87.1052 47.515 86.715 46.9506C86.3287 46.3825 86.126 45.6798 86.1071 44.8427H88.4877C88.5143 45.2328 88.626 45.5586 88.823 45.82C89.0237 46.0775 89.2908 46.2726 89.6241 46.4052C89.9612 46.534 90.3419 46.5984 90.7662 46.5984C91.1828 46.5984 91.5446 46.5378 91.8514 46.4165C92.162 46.2953 92.4025 46.1268 92.573 45.9109C92.7434 45.695 92.8287 45.4469 92.8287 45.1665C92.8287 44.9052 92.751 44.6855 92.5957 44.5075C92.4442 44.3294 92.2207 44.1779 91.9252 44.0529C91.6336 43.9279 91.2756 43.8143 90.8514 43.712L89.5843 43.3938C88.6033 43.1552 87.8287 42.7821 87.2605 42.2745C86.6923 41.7669 86.4101 41.0832 86.4139 40.2234C86.4101 39.5188 86.5976 38.9033 86.9764 38.3768C87.359 37.8503 87.8836 37.4393 88.5502 37.1438C89.2169 36.8484 89.9745 36.7006 90.823 36.7006C91.6866 36.7006 92.4404 36.8484 93.0843 37.1438C93.7321 37.4393 94.2359 37.8503 94.5957 38.3768C94.9556 38.9033 95.1412 39.5131 95.1525 40.2063H92.7946ZM100.898 48.6665C100.001 48.6665 99.2278 48.4847 98.5801 48.1211C97.9361 47.7537 97.4399 47.2347 97.0914 46.5643C96.743 45.89 96.5687 45.0927 96.5687 44.1722C96.5687 43.2745 96.743 42.4866 97.0914 41.8086C97.4399 41.1306 97.9305 40.6022 98.563 40.2234C99.1994 39.8446 99.9456 39.6552 100.802 39.6552C101.377 39.6552 101.913 39.748 102.41 39.9336C102.91 40.1154 103.345 40.39 103.716 40.7575C104.091 41.1249 104.383 41.587 104.591 42.1438C104.8 42.6969 104.904 43.3446 104.904 44.087V44.7518H97.5346V43.2518H102.626C102.626 42.9033 102.55 42.5946 102.398 42.3256C102.247 42.0567 102.037 41.8465 101.768 41.695C101.502 41.5397 101.194 41.462 100.841 41.462C100.474 41.462 100.148 41.5472 99.8642 41.7177C99.5839 41.8844 99.3642 42.1097 99.2051 42.3938C99.046 42.6741 98.9645 42.9866 98.9608 43.3313V44.7575C98.9608 45.1893 99.0403 45.5624 99.1994 45.8768C99.3623 46.1912 99.5914 46.4336 99.8869 46.604C100.182 46.7745 100.533 46.8597 100.938 46.8597C101.207 46.8597 101.453 46.8219 101.677 46.7461C101.9 46.6703 102.091 46.5567 102.251 46.4052C102.41 46.2537 102.531 46.0681 102.614 45.8484L104.853 45.9961C104.739 46.534 104.506 47.0037 104.154 47.4052C103.805 47.8029 103.355 48.1135 102.802 48.337C102.252 48.5567 101.618 48.6665 100.898 48.6665ZM106.483 48.4961V39.7688H108.83V41.2915H108.921C109.08 40.7499 109.347 40.3408 109.722 40.0643C110.097 39.784 110.529 39.6438 111.018 39.6438C111.139 39.6438 111.269 39.6514 111.41 39.6665C111.55 39.6817 111.673 39.7025 111.779 39.729V41.8768C111.665 41.8427 111.508 41.8124 111.307 41.7859C111.107 41.7594 110.923 41.7461 110.756 41.7461C110.4 41.7461 110.082 41.8237 109.802 41.979C109.525 42.1306 109.305 42.3427 109.143 42.6154C108.983 42.8881 108.904 43.2025 108.904 43.5586V48.4961H106.483ZM121.432 39.7688L118.381 48.4961H115.654L112.603 39.7688H115.16L116.972 46.0131H117.063L118.87 39.7688H121.432ZM122.671 48.4961V39.7688H125.091V48.4961H122.671ZM123.887 38.6438C123.527 38.6438 123.218 38.5245 122.961 38.2859C122.707 38.0434 122.58 37.7537 122.58 37.4165C122.58 37.0832 122.707 36.7972 122.961 36.5586C123.218 36.3162 123.527 36.195 123.887 36.195C124.247 36.195 124.554 36.3162 124.807 36.5586C125.065 36.7972 125.194 37.0832 125.194 37.4165C125.194 37.7537 125.065 38.0434 124.807 38.2859C124.554 38.5245 124.247 38.6438 123.887 38.6438ZM130.974 48.6665C130.08 48.6665 129.311 48.4772 128.667 48.0984C128.027 47.7158 127.534 47.1855 127.189 46.5075C126.849 45.8294 126.678 45.0491 126.678 44.1665C126.678 43.2726 126.85 42.4885 127.195 41.8143C127.544 41.1362 128.038 40.6078 128.678 40.229C129.318 39.8465 130.08 39.6552 130.962 39.6552C131.724 39.6552 132.39 39.7934 132.962 40.07C133.534 40.3465 133.987 40.7347 134.32 41.2347C134.653 41.7347 134.837 42.3219 134.871 42.9961H132.587C132.523 42.5605 132.352 42.2101 132.076 41.945C131.803 41.676 131.445 41.5415 131.002 41.5415C130.627 41.5415 130.299 41.6438 130.019 41.8484C129.742 42.0491 129.527 42.3427 129.371 42.729C129.216 43.1154 129.138 43.5832 129.138 44.1325C129.138 44.6893 129.214 45.1628 129.366 45.5529C129.521 45.9431 129.739 46.2404 130.019 46.445C130.299 46.6495 130.627 46.7518 131.002 46.7518C131.278 46.7518 131.527 46.695 131.746 46.5813C131.97 46.4677 132.153 46.3029 132.297 46.087C132.445 45.8673 132.542 45.604 132.587 45.2972H134.871C134.833 45.9639 134.652 46.551 134.326 47.0586C134.004 47.5624 133.559 47.9563 132.991 48.2404C132.422 48.5245 131.75 48.6665 130.974 48.6665ZM136.421 48.4961V39.7688H138.841V48.4961H136.421ZM137.637 38.6438C137.277 38.6438 136.968 38.5245 136.711 38.2859C136.457 38.0434 136.33 37.7537 136.33 37.4165C136.33 37.0832 136.457 36.7972 136.711 36.5586C136.968 36.3162 137.277 36.195 137.637 36.195C137.997 36.195 138.304 36.3162 138.557 36.5586C138.815 36.7972 138.944 37.0832 138.944 37.4165C138.944 37.7537 138.815 38.0434 138.557 38.2859C138.304 38.5245 137.997 38.6438 137.637 38.6438ZM144.724 48.6665C143.841 48.6665 143.078 48.479 142.434 48.104C141.794 47.7253 141.299 47.1987 140.951 46.5245C140.602 45.8465 140.428 45.0605 140.428 44.1665C140.428 43.265 140.602 42.4772 140.951 41.8029C141.299 41.1249 141.794 40.5984 142.434 40.2234C143.078 39.8446 143.841 39.6552 144.724 39.6552C145.606 39.6552 146.367 39.8446 147.008 40.2234C147.652 40.5984 148.148 41.1249 148.496 41.8029C148.845 42.4772 149.019 43.265 149.019 44.1665C149.019 45.0605 148.845 45.8465 148.496 46.5245C148.148 47.1987 147.652 47.7253 147.008 48.104C146.367 48.479 145.606 48.6665 144.724 48.6665ZM144.735 46.7915C145.136 46.7915 145.472 46.6779 145.741 46.4506C146.01 46.2196 146.212 45.9052 146.349 45.5075C146.489 45.1097 146.559 44.6571 146.559 44.1495C146.559 43.6419 146.489 43.1893 146.349 42.7915C146.212 42.3938 146.01 42.0794 145.741 41.8484C145.472 41.6173 145.136 41.5018 144.735 41.5018C144.33 41.5018 143.989 41.6173 143.712 41.8484C143.439 42.0794 143.233 42.3938 143.093 42.7915C142.956 43.1893 142.888 43.6419 142.888 44.1495C142.888 44.6571 142.956 45.1097 143.093 45.5075C143.233 45.9052 143.439 46.2196 143.712 46.4506C143.989 46.6779 144.33 46.7915 144.735 46.7915ZM156.785 48.6609C156.228 48.6609 155.732 48.5643 155.296 48.3711C154.86 48.1741 154.516 47.8844 154.262 47.5018C154.012 47.1154 153.887 46.6344 153.887 46.0586C153.887 45.5737 153.976 45.1665 154.154 44.837C154.332 44.5075 154.574 44.2423 154.881 44.0415C155.188 43.8408 155.537 43.6893 155.927 43.587C156.321 43.4847 156.733 43.4128 157.165 43.3711C157.673 43.3181 158.082 43.2688 158.393 43.2234C158.703 43.1741 158.929 43.1022 159.069 43.0075C159.209 42.9128 159.279 42.7726 159.279 42.587V42.5529C159.279 42.1931 159.165 41.9147 158.938 41.7177C158.715 41.5207 158.396 41.4222 157.983 41.4222C157.548 41.4222 157.201 41.5188 156.944 41.712C156.686 41.9014 156.516 42.14 156.432 42.4279L154.194 42.2461C154.307 41.7158 154.531 41.2575 154.864 40.8711C155.198 40.4809 155.627 40.1817 156.154 39.9734C156.684 39.7612 157.298 39.6552 157.995 39.6552C158.48 39.6552 158.944 39.712 159.387 39.8256C159.834 39.9393 160.23 40.1154 160.574 40.354C160.923 40.5927 161.198 40.8995 161.398 41.2745C161.599 41.6457 161.699 42.0908 161.699 42.6097V48.4961H159.404V47.2859H159.336C159.196 47.5586 159.008 47.7991 158.773 48.0075C158.538 48.212 158.256 48.373 157.927 48.4904C157.597 48.604 157.216 48.6609 156.785 48.6609ZM157.478 46.9904C157.834 46.9904 158.148 46.9203 158.421 46.7802C158.694 46.6362 158.908 46.4431 159.063 46.2006C159.218 45.9582 159.296 45.6836 159.296 45.3768V44.4506C159.22 44.4999 159.116 44.5453 158.983 44.587C158.855 44.6249 158.709 44.6609 158.546 44.695C158.383 44.7253 158.22 44.7537 158.057 44.7802C157.894 44.8029 157.747 44.8237 157.614 44.8427C157.33 44.8844 157.082 44.9506 156.87 45.0415C156.658 45.1325 156.493 45.2556 156.376 45.4109C156.258 45.5624 156.199 45.7518 156.199 45.979C156.199 46.3086 156.319 46.5605 156.557 46.7347C156.8 46.9052 157.107 46.9904 157.478 46.9904ZM165.998 36.8597V48.4961H163.577V36.8597H165.998ZM175.583 48.6665C174.689 48.6665 173.92 48.4772 173.276 48.0984C172.636 47.7158 172.144 47.1855 171.799 46.5075C171.458 45.8294 171.287 45.0491 171.287 44.1665C171.287 43.2726 171.46 42.4885 171.805 41.8143C172.153 41.1362 172.647 40.6078 173.287 40.229C173.928 39.8465 174.689 39.6552 175.572 39.6552C176.333 39.6552 177 39.7934 177.572 40.07C178.144 40.3465 178.596 40.7347 178.93 41.2347C179.263 41.7347 179.447 42.3219 179.481 42.9961H177.197C177.132 42.5605 176.962 42.2101 176.685 41.945C176.412 41.676 176.055 41.5415 175.611 41.5415C175.236 41.5415 174.909 41.6438 174.628 41.8484C174.352 42.0491 174.136 42.3427 173.981 42.729C173.825 43.1154 173.748 43.5832 173.748 44.1325C173.748 44.6893 173.823 45.1628 173.975 45.5529C174.13 45.9431 174.348 46.2404 174.628 46.445C174.909 46.6495 175.236 46.7518 175.611 46.7518C175.888 46.7518 176.136 46.695 176.356 46.5813C176.579 46.4677 176.763 46.3029 176.907 46.087C177.055 45.8673 177.151 45.604 177.197 45.2972H179.481C179.443 45.9639 179.261 46.551 178.935 47.0586C178.613 47.5624 178.168 47.9563 177.6 48.2404C177.032 48.5245 176.359 48.6665 175.583 48.6665ZM183.451 36.8597V48.4961H181.03V36.8597H183.451ZM185.39 48.4961V39.7688H187.81V48.4961H185.39ZM186.606 38.6438C186.246 38.6438 185.937 38.5245 185.68 38.2859C185.426 38.0434 185.299 37.7537 185.299 37.4165C185.299 37.0832 185.426 36.7972 185.68 36.5586C185.937 36.3162 186.246 36.195 186.606 36.195C186.965 36.195 187.272 36.3162 187.526 36.5586C187.784 36.7972 187.912 37.0832 187.912 37.4165C187.912 37.7537 187.784 38.0434 187.526 38.2859C187.272 38.5245 186.965 38.6438 186.606 38.6438ZM193.726 48.6665C192.829 48.6665 192.056 48.4847 191.408 48.1211C190.764 47.7537 190.268 47.2347 189.92 46.5643C189.571 45.89 189.397 45.0927 189.397 44.1722C189.397 43.2745 189.571 42.4866 189.92 41.8086C190.268 41.1306 190.759 40.6022 191.391 40.2234C192.028 39.8446 192.774 39.6552 193.63 39.6552C194.206 39.6552 194.742 39.748 195.238 39.9336C195.738 40.1154 196.173 40.39 196.545 40.7575C196.92 41.1249 197.211 41.587 197.42 42.1438C197.628 42.6969 197.732 43.3446 197.732 44.087V44.7518H190.363V43.2518H195.454C195.454 42.9033 195.378 42.5946 195.226 42.3256C195.075 42.0567 194.865 41.8465 194.596 41.695C194.331 41.5397 194.022 41.462 193.67 41.462C193.302 41.462 192.976 41.5472 192.692 41.7177C192.412 41.8844 192.192 42.1097 192.033 42.3938C191.874 42.6741 191.793 42.9866 191.789 43.3313V44.7575C191.789 45.1893 191.868 45.5624 192.028 45.8768C192.19 46.1912 192.42 46.4336 192.715 46.604C193.01 46.7745 193.361 46.8597 193.766 46.8597C194.035 46.8597 194.281 46.8219 194.505 46.7461C194.728 46.6703 194.92 46.5567 195.079 46.4052C195.238 46.2537 195.359 46.0681 195.442 45.8484L197.681 45.9961C197.567 46.534 197.334 47.0037 196.982 47.4052C196.634 47.8029 196.183 48.1135 195.63 48.337C195.081 48.5567 194.446 48.6665 193.726 48.6665ZM201.732 43.4506V48.4961H199.312V39.7688H201.618V41.3086H201.721C201.914 40.801 202.238 40.3995 202.692 40.104C203.147 39.8048 203.698 39.6552 204.346 39.6552C204.952 39.6552 205.48 39.7878 205.931 40.0529C206.382 40.3181 206.732 40.6969 206.982 41.1893C207.232 41.6779 207.357 42.2612 207.357 42.9393V48.4961H204.937V43.3711C204.94 42.837 204.804 42.4203 204.528 42.1211C204.251 41.8181 203.87 41.6665 203.385 41.6665C203.06 41.6665 202.772 41.7366 202.522 41.8768C202.276 42.0169 202.082 42.2215 201.942 42.4904C201.806 42.7556 201.736 43.0756 201.732 43.4506ZM213.907 39.7688V41.587H208.651V39.7688H213.907ZM209.844 37.6779H212.265V45.8143C212.265 46.0378 212.299 46.212 212.367 46.337C212.435 46.4582 212.53 46.5434 212.651 46.5927C212.776 46.6419 212.92 46.6665 213.083 46.6665C213.197 46.6665 213.31 46.6571 213.424 46.6381C213.537 46.6154 213.625 46.5984 213.685 46.587L214.066 48.3881C213.945 48.426 213.774 48.4696 213.555 48.5188C213.335 48.5719 213.068 48.604 212.753 48.6154C212.17 48.6381 211.659 48.5605 211.219 48.3825C210.784 48.2044 210.445 47.9279 210.202 47.5529C209.96 47.1779 209.84 46.7044 209.844 46.1325V37.6779ZM219.367 48.6665C218.469 48.6665 217.697 48.4847 217.049 48.1211C216.405 47.7537 215.909 47.2347 215.56 46.5643C215.212 45.89 215.037 45.0927 215.037 44.1722C215.037 43.2745 215.212 42.4866 215.56 41.8086C215.909 41.1306 216.399 40.6022 217.032 40.2234C217.668 39.8446 218.414 39.6552 219.27 39.6552C219.846 39.6552 220.382 39.748 220.878 39.9336C221.378 40.1154 221.814 40.39 222.185 40.7575C222.56 41.1249 222.852 41.587 223.06 42.1438C223.269 42.6969 223.373 43.3446 223.373 44.087V44.7518H216.003V43.2518H221.094C221.094 42.9033 221.019 42.5946 220.867 42.3256C220.715 42.0567 220.505 41.8465 220.236 41.695C219.971 41.5397 219.662 41.462 219.31 41.462C218.943 41.462 218.617 41.5472 218.333 41.7177C218.053 41.8844 217.833 42.1097 217.674 42.3938C217.515 42.6741 217.433 42.9866 217.43 43.3313V44.7575C217.43 45.1893 217.509 45.5624 217.668 45.8768C217.831 46.1912 218.06 46.4336 218.356 46.604C218.651 46.7745 219.001 46.8597 219.407 46.8597C219.676 46.8597 219.922 46.8219 220.145 46.7461C220.369 46.6703 220.56 46.5567 220.719 46.4052C220.878 46.2537 221 46.0681 221.083 45.8484L223.322 45.9961C223.208 46.534 222.975 47.0037 222.623 47.4052C222.274 47.8029 221.823 48.1135 221.27 48.337C220.721 48.5567 220.087 48.6665 219.367 48.6665Z" fill="#0284EB"/>
</svg>
