<svg width="719" height="106" viewBox="0 0 719 106" fill="none" xmlns="http://www.w3.org/2000/svg">
<path d="M380.086 54.2542C386.812 54.2542 406.071 49.5204 442.287 59.0704C478.503 68.6203 489.114 72.5291 539.097 58.7867C573.114 49.434 600.18 30.3783 646.827 13.1078C674.861 2.72885 718.914 0.724609 718.914 0.724609L-0.240234 0.724715V66.8102C-0.240234 66.8102 22.8356 96.2101 67.0879 103.725C111.34 111.239 141.146 89.397 154.844 70.4635C168.541 51.5301 184.735 34.2704 210.264 34.2704C225.866 34.2704 236.239 37.8919 253.318 49.5204C270.397 61.149 289.952 67.2586 309.683 66.8102C329.413 66.3618 373.359 54.2542 380.086 54.2542Z" fill="url(#paint0_linear_403_10035)"/>
<defs>
<linearGradient id="paint0_linear_403_10035" x1="34.6668" y1="113.079" x2="467.684" y2="-73.2566" gradientUnits="userSpaceOnUse">
<stop stop-color="#0284EB"/>
<stop offset="1" stop-color="#74C2FF"/>
</linearGradient>
</defs>
</svg>
